<svg xmlns="http://www.w3.org/2000/svg" viewBox="0 0 445 251"><defs><style>.cls-1{fill:#fff;}.cls-2{font-size:48px;font-family:MyriadPro-Regular, Myriad Pro;}.cls-2,.cls-4{fill:#f7403c;}.cls-3{letter-spacing:-0.01em;}</style></defs><title>audiophile</title><g id="Layer_4" data-name="Layer 4"><rect class="cls-1" width="445" height="251"/></g><g id="Audiophile_Image" data-name="Audiophile Image"><text class="cls-2" transform="translate(112.27 241)"><tspan class="cls-3">A</tspan><tspan x="28.8" y="0">udiophile</tspan></text></g><g id="Layer_2_Image" data-name="Layer 2 Image"><path class="cls-4" d="M222.5,47A78.5,78.5,0,1,1,144,125.5,78.59,78.59,0,0,1,222.5,47m0-5A83.5,83.5,0,1,0,306,125.5,83.5,83.5,0,0,0,222.5,42Z"/></g><g id="Audiophile_Image-2" data-name="Audiophile Image"><path class="cls-4" d="M259.54,195l-14.08-41.44H200.18L186.5,195H166.79L212.23,61.24h22L279.84,195Zm-18.27-56.74-12.45-36.6c-2.56-7.5-4.37-14.41-6.09-21.08-2,8-3.93,14.66-5.89,20.86l-12.46,36.82Z"/><path class="cls-1" d="M233.48,62.24l45,131.76H260.26l-14.08-41.44H199.46L185.78,194H168.18L212.95,62.24h20.53m-30.5,77h39.69l-12.9-37.93c-2.93-8.6-4.89-16.42-6.84-24h-.39c-2,7.82-4.11,15.84-6.65,23.85L203,139.26m31.93-79H211.52l-.46,1.36L166.29,193.36l-.9,2.64h21.83l.45-1.37,13.23-40.07h43.84l13.61,40.09.46,1.36h22.41l-.9-2.65-45-131.76-.46-1.35Zm-29.14,77,12-35.48c1.67-5.25,3.27-10.83,5-17.22,1.45,5.54,3,11.28,5.14,17.41l12,35.28Z"/><path class="cls-4" d="M180.77,150.32a25.46,25.46,0,0,1-11.29-35.44,56.89,56.89,0,1,1,107.27,0,25.46,25.46,0,0,1-11.29,35.44L264,151V103.64l1.43.68a25.36,25.36,0,0,1,4.89,3.05,47.9,47.9,0,1,0-94.47,0,25.4,25.4,0,0,1,4.89-3.05l1.43-.68V151Z"/><path class="cls-1" d="M223.11,40a55.92,55.92,0,0,1,52.54,75A24.46,24.46,0,0,1,265,149.42V105.23a24.49,24.49,0,0,1,6,4,48.9,48.9,0,1,0-95.8,0,24.48,24.48,0,0,1,6-4v44.19A24.46,24.46,0,0,1,170.58,115a55.92,55.92,0,0,1,52.54-75m0-2a57.92,57.92,0,0,0-54.73,76.78,26.46,26.46,0,0,0,12,36.44l2.86,1.36V102.06l-2.86,1.36a26.29,26.29,0,0,0-3.72,2.16,47.44,47.44,0,0,1-.41-6.2,46.9,46.9,0,0,1,93.8,0,47.44,47.44,0,0,1-.41,6.2,26.28,26.28,0,0,0-3.72-2.16L263,102.06v50.52l2.86-1.36a26.46,26.46,0,0,0,12-36.44A57.92,57.92,0,0,0,223.11,38Z"/><path class="cls-4" d="M188.38,103.12v48.4a24.72,24.72,0,0,0,3.49.25h3.49v-48.9h-3.49A24.63,24.63,0,0,0,188.38,103.12Zm62.87-.25v48.9h3.49a24.71,24.71,0,0,0,3.49-.25v-48.4a24.63,24.63,0,0,0-3.49-.25Z"/></g></svg>