<?xml version="1.0" encoding="utf-8"?>
<!-- Generator: Adobe Illustrator 19.0.0, SVG Export Plug-In . SVG Version: 6.00 Build 0)  -->
<svg version="1.1" xmlns="http://www.w3.org/2000/svg" xmlns:xlink="http://www.w3.org/1999/xlink" x="0px" y="0px"
	 viewBox="0 0 217.5 212.5" style="enable-background:new 0 0 217.5 212.5;" xml:space="preserve">
<style type="text/css">
	.st0{fill:#F7403C;}
	.st1{fill:#EF433F;}
	.st2{fill:#FFFFFF;}
</style>
<g id="Audiophile_xA0_Image_3_">
	<g>
		<path class="st0" d="M7.7,192.8L4.3,203H0l11-32.4h5l11,32.4h-4.5l-3.5-10.2H7.7z M18.3,189.6l-3.2-9.3c-0.7-2.1-1.2-4-1.7-5.9
			h-0.1c-0.5,1.9-1,3.9-1.6,5.9l-3.2,9.4H18.3z"/>
		<path class="st0" d="M50.5,196.7c0,2.4,0,4.5,0.2,6.3H47l-0.2-3.8h-0.1c-1.1,1.9-3.6,4.3-7.7,4.3c-3.6,0-8-2-8-10.2v-13.6h4.2
			v12.9c0,4.4,1.3,7.4,5.2,7.4c2.8,0,4.8-2,5.6-3.8c0.2-0.6,0.4-1.4,0.4-2.2v-14.3h4.2V196.7z"/>
		<path class="st0" d="M77.6,168.9V197c0,2.1,0,4.4,0.2,6H74l-0.2-4h-0.1c-1.3,2.6-4.1,4.6-7.9,4.6c-5.6,0-9.9-4.8-9.9-11.8
			c0-7.7,4.8-12.5,10.4-12.5c3.6,0,6,1.7,7,3.6h0.1v-13.9H77.6z M73.4,189.2c0-0.5,0-1.2-0.2-1.8c-0.6-2.7-2.9-4.9-6.1-4.9
			c-4.4,0-7,3.8-7,9c0,4.7,2.3,8.6,6.9,8.6c2.8,0,5.4-1.9,6.2-5c0.1-0.6,0.2-1.2,0.2-1.8V189.2z"/>
		<path class="st0" d="M89.3,173.2c0,1.4-1,2.6-2.7,2.6c-1.5,0-2.5-1.2-2.5-2.6c0-1.5,1.1-2.6,2.6-2.6
			C88.3,170.6,89.3,171.7,89.3,173.2z M84.6,203v-23.2h4.2V203H84.6z"/>
		<path class="st0" d="M116.9,191.2c0,8.6-6,12.3-11.6,12.3c-6.3,0-11.1-4.6-11.1-12c0-7.8,5.1-12.3,11.5-12.3
			C112.4,179.2,116.9,184.1,116.9,191.2z M98.4,191.4c0,5.1,2.9,8.9,7.1,8.9c4,0,7.1-3.8,7.1-9c0-3.9-2-8.9-7-8.9
			C100.6,182.4,98.4,187,98.4,191.4z"/>
		<path class="st0" d="M122.2,187.4c0-3-0.1-5.4-0.2-7.6h3.8l0.2,4h0.1c1.7-2.8,4.5-4.5,8.3-4.5c5.6,0,9.8,4.8,9.8,11.8
			c0,8.4-5.1,12.5-10.6,12.5c-3.1,0-5.8-1.3-7.2-3.6h-0.1v12.6h-4.2V187.4z M126.4,193.5c0,0.6,0.1,1.2,0.2,1.7
			c0.8,2.9,3.3,4.9,6.3,4.9c4.5,0,7.1-3.6,7.1-9c0-4.7-2.4-8.6-6.9-8.6c-2.9,0-5.6,2.1-6.4,5.2c-0.1,0.5-0.3,1.2-0.3,1.7V193.5z"/>
		<path class="st0" d="M149.5,168.9h4.2v14.5h0.1c0.7-1.2,1.7-2.3,3-3c1.2-0.7,2.7-1.2,4.3-1.2c3.1,0,8.1,1.9,8.1,9.9V203h-4.2
			v-13.3c0-3.7-1.4-6.9-5.4-6.9c-2.7,0-4.9,1.9-5.7,4.2c-0.2,0.6-0.3,1.2-0.3,2v14h-4.2V168.9z"/>
		<path class="st0" d="M180.9,173.2c0,1.4-1,2.6-2.7,2.6c-1.5,0-2.5-1.2-2.5-2.6c0-1.5,1.1-2.6,2.6-2.6
			C179.9,170.6,180.9,171.7,180.9,173.2z M176.2,203v-23.2h4.2V203H176.2z"/>
		<path class="st0" d="M187.4,168.9h4.2V203h-4.2V168.9z"/>
		<path class="st0" d="M201.1,192.2c0.1,5.7,3.7,8.1,8,8.1c3,0,4.8-0.5,6.4-1.2l0.7,3c-1.5,0.7-4,1.4-7.7,1.4
			c-7.2,0-11.4-4.7-11.4-11.7c0-7,4.1-12.5,10.9-12.5c7.6,0,9.6,6.7,9.6,10.9c0,0.9-0.1,1.5-0.1,2H201.1z M213.5,189.1
			c0-2.7-1.1-6.9-5.9-6.9c-4.3,0-6.1,3.9-6.5,6.9H213.5z"/>
	</g>
</g>
<g id="Layer_2_xA0_Image_1_">
	<g>
		<path class="st1" d="M109,9c43.3,0,78.5,35.2,78.5,78.5S152.3,166,109,166s-78.5-35.2-78.5-78.5S65.7,9,109,9 M109,4
			C62.9,4,25.5,41.4,25.5,87.5S62.9,171,109,171s83.5-37.4,83.5-83.5S155.1,4,109,4L109,4z"/>
	</g>
</g>
<g id="Audiophile_xA0_Image_1_">
	<g>
		<g>
			<g>
				<path class="st0" d="M146.1,157L132,115.6H86.7L73,157H53.3L98.8,23.2h22L166.4,157H146.1z M127.8,100.3l-12.5-36.6
					c-2.6-7.5-4.4-14.4-6.1-21.1c-2,8-3.9,14.7-5.9,20.9l-12.5,36.8H127.8z"/>
				<path class="st2" d="M120,24.2L165,156h-18.2l-14.1-41.4H86L72.3,156H54.7L99.5,24.2H120 M89.5,101.3h39.7l-12.9-37.9
					c-2.9-8.6-4.9-16.4-6.8-24h-0.4c-2,7.8-4.1,15.8-6.6,23.9L89.5,101.3 M121.4,22.2H120H99.5H98l-0.5,1.4L52.8,155.4l-0.9,2.6h2.8
					h17.6h1.4l0.5-1.4l13.2-40.1h43.8l13.6,40.1l0.5,1.4h1.4H165h2.8l-0.9-2.6l-45-131.8L121.4,22.2L121.4,22.2z M92.3,99.3l12-35.5
					c1.7-5.3,3.3-10.8,5-17.2c1.4,5.5,3,11.3,5.1,17.4l12,35.3H92.3L92.3,99.3z"/>
			</g>
		</g>
		<g>
			<g>
				<path class="st0" d="M67.3,112.3c-8.8-4.2-14.5-13.2-14.5-23c0-4.4,1.1-8.7,3.2-12.4c-2.2-6.1-3.2-12.5-3.2-19
					C52.8,26.5,78.3,1,109.6,1c31.4,0,56.9,25.5,56.9,56.9c0,6.5-1.1,12.9-3.2,19c2.1,3.8,3.2,8.1,3.2,12.4c0,9.8-5.7,18.8-14.5,23
					l-1.4,0.7V65.6l1.4,0.7c1.7,0.8,3.4,1.8,4.9,3.1c0.4-2.6,0.7-5.3,0.7-8c0-26.4-21.5-47.9-47.9-47.9c-26.4,0-47.9,21.5-47.9,47.9
					c0,2.7,0.2,5.4,0.7,8c1.5-1.2,3.2-2.2,4.9-3.1l1.4-0.7V113L67.3,112.3z"/>
				<path class="st2" d="M109.6,2c30.9,0,55.9,25,55.9,55.9c0,6.7-1.2,13.1-3.3,19.1c2.1,3.6,3.3,7.8,3.3,12.3
					c0,9.8-5.7,18.2-14,22.1V67.2c2.2,1,4.2,2.4,6,4c0.7-3.2,1-6.5,1-9.9c0-27-21.9-48.9-48.9-48.9c-27,0-48.9,21.9-48.9,48.9
					c0,3.4,0.3,6.7,1,9.9c1.8-1.6,3.8-3,6-4v44.2c-8.3-3.9-14-12.3-14-22.1c0-4.5,1.2-8.7,3.3-12.3c-2.2-6-3.3-12.4-3.3-19.1
					C53.8,27,78.8,2,109.6,2 M109.6,0C77.7,0,51.8,26,51.8,57.9c0,6.5,1.1,12.8,3.2,18.9c-2.1,3.8-3.2,8.2-3.2,12.5
					c0,10.2,5.9,19.5,15.1,23.9l2.9,1.4v-3.2V67.2v-3.2l-2.9,1.4c-1.3,0.6-2.5,1.3-3.7,2.2c-0.3-2-0.4-4.1-0.4-6.2
					c0-25.9,21-46.9,46.9-46.9c25.9,0,46.9,21,46.9,46.9c0,2.1-0.1,4.1-0.4,6.2c-1.2-0.8-2.4-1.5-3.7-2.2l-2.9-1.4v3.2v44.2v3.2
					l2.9-1.4c9.2-4.4,15.1-13.7,15.1-23.9c0-4.4-1.1-8.7-3.2-12.5c2.1-6.1,3.2-12.4,3.2-18.9C167.5,26,141.6,0,109.6,0L109.6,0z"/>
			</g>
		</g>
	</g>
	<g>
		<path class="st0" d="M74.9,65.1v48.4c1.1,0.2,2.3,0.2,3.5,0.2h3.5V64.9h-3.5C77.2,64.9,76.1,65,74.9,65.1z M137.8,64.9v48.9h3.5
			c1.2,0,2.4-0.1,3.5-0.2V65.1c-1.1-0.2-2.3-0.3-3.5-0.3H137.8z"/>
	</g>
</g>
</svg>
