<svg xmlns="http://www.w3.org/2000/svg" viewBox="0 0 166.4 219.7"><defs><style>.cls-1{font-size:48px;font-family:MyriadPro-Regular, Myriad Pro;}.cls-1,.cls-3{fill:#f7403c;}.cls-2{fill:none;stroke:#f7403c;stroke-miterlimit:10;stroke-width:5px;}.cls-4{fill:#fff;}</style></defs><title>blog</title><g id="Audiophile_Image" data-name="Audiophile Image"><text class="cls-1" transform="translate(37.44 207.7)">Blog</text></g><g id="Layer_3" data-name="Layer 3"><circle class="cls-2" cx="83.2" cy="83.2" r="80.7"/><path class="cls-3" d="M118.86,137.76l-6.26-26.85s21.44-20.62,19-47.06S102.58,20.78,75.54,28,44,56.86,43.89,60.41s3.2,12.64.8,18.85-11,15.92-10.21,18.83,8.21,3.4,8.21,3.4.09,2.81-.9,3.41-.43,2.93,1.19,4.23a16.45,16.45,0,0,0,4.31,2.18s-3.11.7-2.7,2.9,1.5,3.31,3.81,3.41,2.91-1,3.3.2.65,1.3.65,1.3-2.3,6-.3,10.37,5.11,4.41,8.71,3.51,10.62-2.91,10.62-2.91l1.92,9.77c2,14.22-7.68,21.54-7.88,21.69a80.56,80.56,0,0,0,65.51-13.8c-1.29-.62-11.62-9.53-12.08-10Zm0,0"/><path class="cls-3" d="M52.72,130.72c2,3.16,4.82,3.08,8.05,2.27,3.61-.9,10.62-2.91,10.62-2.91l1.92,9.77A24.62,24.62,0,0,1,72.12,152h0c6.7-9.55,1.76-16.85,2.64-20.48s14.89-7.05,17.83-9.31,5-8.48,5-8.48A41.66,41.66,0,0,1,91.56,121c-3.14,2.74-27.48,9.89-32.14,11.46-4.42,1.49-6.5-1.42-6.7-1.72Zm0,0"/><path class="cls-3" d="M68.89,30.22c16.84-6.17,36.79-2.84,48.89,9.53,14.42,14.74,17.78,41.57-7.4,70l8.48,28-6.26-26.85s21.44-20.62,19-47.06S102.58,20.78,75.54,28a54.88,54.88,0,0,0-6.65,2.23Zm0,0"/><path class="cls-4" d="M88,41.09A16,16,0,0,1,103.9,57.31a16.27,16.27,0,0,1-8.07,14.12v7.43a1.6,1.6,0,0,1-1.58,1.61H82.62A1.6,1.6,0,0,1,81,78.86v-7a16.24,16.24,0,0,1-8.88-14.56A16,16,0,0,1,88,41.09Zm0,0"/><path class="cls-4" d="M83.18,80.26h9.7a1,1,0,1,1,0,2,1,1,0,1,1,0,2,1,1,0,1,1,0,2h-9.7a1,1,0,1,1,0-2,1,1,0,1,1,0-2,1,1,0,1,1,0-2Zm0,0"/><path class="cls-3" d="M83.67,56.9l2.52,20.52h3.69L92.4,56.9l.92.14L90.74,78l-.06.45h-5.3L85.33,78,82.75,57l.92-.14Zm0,0"/><path class="cls-3" d="M89.54,54.29l-.33,2.3,8.62-1.29L86.14,60.17,86.57,57l-7.66,1.45,10.63-4.18Zm0,0"/><path class="cls-4" d="M87.28,90.34v.29h-1v-.29H86a.93.93,0,0,1-.83-.56h0a1,1,0,0,1-.92-1,1,1,0,0,1,.42-.83H83.17a1,1,0,0,1,0-2H92.9a1,1,0,0,1,0,2H91.48a1,1,0,0,1,.42.83,1,1,0,0,1-.92,1h0a.93.93,0,0,1-.84.56h-.39v.29h-1v-.29H87.28Zm0,0"/></g></svg>