<svg xmlns="http://www.w3.org/2000/svg" viewBox="0 0 445 251"><defs><style>.cls-1{fill:#fff;}.cls-2{fill:none;stroke:#f7403c;stroke-miterlimit:10;stroke-width:5px;}.cls-3,.cls-4{fill:#f7403c;}.cls-4{font-size:48px;font-family:MyriadPro-Regular, Myriad Pro;}</style></defs><title>blog</title><g id="Layer_4" data-name="Layer 4"><rect class="cls-1" width="445" height="251"/></g><g id="Layer_3" data-name="Layer 3"><circle class="cls-2" cx="222.5" cy="125.5" r="81"/><path class="cls-3" d="M258.29,180.26,252,153.31s21.52-20.7,19.1-47.24-29.15-43.22-56.29-36-31.64,29-31.76,32.54,3.22,12.69.8,18.92-11.06,16-10.25,18.9,8.24,3.42,8.24,3.42.09,2.82-.9,3.42-.43,2.94,1.2,4.25a16.51,16.51,0,0,0,4.33,2.19s-3.12.7-2.71,2.91,1.51,3.32,3.82,3.42,2.92-1,3.32.2.66,1.3.66,1.3-2.31,6-.3,10.4,5.13,4.43,8.75,3.52,10.66-2.92,10.66-2.92l1.92,9.81c2,14.28-7.71,21.62-7.91,21.77a80.86,80.86,0,0,0,65.76-13.85c-1.29-.62-11.67-9.57-12.13-10Zm0,0"/><path class="cls-3" d="M191.91,173.2c2,3.17,4.84,3.09,8.08,2.28,3.62-.91,10.66-2.92,10.66-2.92l1.92,9.81a24.71,24.71,0,0,1-1.19,12.18h0C218.1,185,213.15,177.63,214,174s14.95-7.08,17.9-9.34,5.06-8.51,5.06-8.51a41.81,41.81,0,0,1-6.1,7.28c-3.15,2.75-27.59,9.93-32.26,11.5-4.44,1.5-6.53-1.43-6.73-1.73Zm0,0"/><path class="cls-3" d="M208.14,72.32c16.9-6.19,36.92-2.85,49.07,9.57,14.47,14.8,17.84,41.73-7.43,70.22l8.51,28.15L252,153.31s21.52-20.7,19.1-47.24-29.15-43.22-56.29-36a55.09,55.09,0,0,0-6.67,2.24Zm0,0"/><path class="cls-1" d="M227.35,83.23a16.1,16.1,0,0,1,15.92,16.27,16.33,16.33,0,0,1-8.1,14.18v7.46a1.6,1.6,0,0,1-1.58,1.62H221.92a1.6,1.6,0,0,1-1.58-1.62v-7a16.3,16.3,0,0,1-8.91-14.61,16.1,16.1,0,0,1,15.92-16.27Zm0,0"/><path class="cls-1" d="M222.48,122.55h9.74a1,1,0,1,1,0,2,1,1,0,1,1,0,2,1,1,0,1,1,0,2h-9.74a1,1,0,1,1,0-2,1,1,0,1,1,0-2,1,1,0,1,1,0-2Zm0,0"/><path class="cls-3" d="M223,99.1l2.53,20.59h3.7l2.53-20.59.92.14-2.59,21-.06.45h-5.32l-.06-.45-2.59-21,.92-.14Zm0,0"/><path class="cls-3" d="M228.86,96.48l-.34,2.31,8.65-1.29-11.72,4.89.43-3.17-7.69,1.46,10.67-4.2Zm0,0"/><path class="cls-1" d="M226.6,132.67V133h-1v-.29h-.37a.93.93,0,0,1-.84-.56h0a1,1,0,0,1-.93-1,1,1,0,0,1,.42-.84h-1.42a1,1,0,0,1,0-2h9.77a1,1,0,0,1,0,2h-1.43a1,1,0,0,1,.42.84,1,1,0,0,1-.93,1h0a.93.93,0,0,1-.84.56h-.39V133h-1v-.29H226.6Zm0,0"/></g><g id="Audiophile_Image" data-name="Audiophile Image"><text class="cls-4" transform="translate(177.24 241)">Blog</text></g></svg>