<svg xmlns="http://www.w3.org/2000/svg" viewBox="0 0 361.96 219.7"><defs><style>.cls-1{font-size:48px;fill:#ef4440;font-family:MyriadPro-Regular, Myriad Pro;}.cls-2{letter-spacing:-0.01em;}.cls-3{letter-spacing:0em;}.cls-4{letter-spacing:-0.03em;}.cls-5{letter-spacing:-0.01em;}.cls-6,.cls-7{fill:none;stroke-miterlimit:10;}.cls-6{stroke:#ee423f;fill-rule:evenodd;}.cls-7{stroke:#ee433f;stroke-width:5px;}</style></defs><title>bttf</title><g id="Audiophile_Image" data-name="Audiophile Image"><text class="cls-1" transform="translate(0 207.7)">Back <tspan class="cls-2" x="103.34" y="0">t</tspan><tspan class="cls-3" x="118.94" y="0">o the </tspan><tspan class="cls-4" x="232.22" y="0">F</tspan><tspan class="cls-3" x="253.92" y="0">utu</tspan><tspan class="cls-5" x="322.7" y="0">r</tspan><tspan x="337.92" y="0">e</tspan></text></g><g id="Layer_4" data-name="Layer 4"><path class="cls-6" d="M218.19,106.52l.33-.7.33-.71.32-.71.31-.72.31-.72.3-.73.29-.73.29-.74L221,100l.27-.75.27-.76.26-.76L222,97l.25-.78.24-.78.23-.79.23-.8.22-.8.21-.81.21-.82.2-.82.19-.83.38-1.71H238l.2,0,.2,0,.2,0,.2,0,.2,0,.2,0,.2.05.19.06.19.07.19.08.19.09.19.1.18.11.18.12.18.13.17.14.17.15.17.16.16.16.16.17.16.18.16.19.17.22.17.25.16.28.13.29.11.29.08.3.06.3,0,.3,0,.3v.61l0,.31,0,.31,0,.31-.05.31-.06.31-.07.31-.08.31-.08.31-.09.31-.1.31-.1.3-.1.3-.11.3-.11.3-.11.3-.11.3-.11.29-.11.29-.11.29-.11.28-.11.28-.11.28-.12.28-.12.28-.12.27-.13.27-.13.26-.14.25-.14.25-.15.24-.15.23-.16.23-.16.22-.17.21-.18.21-.18.2-.19.2-.2.19-.2.18-.21.18-.22.17-.22.17-.23.16-.24.16-.24.15-.25.15-.26.15-.26.14-.27.14-.28.14h0l.09.06.24.19.23.2.23.22.23.23.22.24.19.23.18.23.17.22.16.22.15.22.14.22.09.14.31-.53.31-.56.31-.56.3-.57.29-.57.29-.58.28-.58.27-.59.27-.59.26-.6.25-.6.25-.61.24-.61.23-.62.23-.62.22-.63.21-.63.21-.63L243,97l.2-.64.19-.65.18-.65.18-.66.17-.66.17-.66.16-.67.16-.67.15-.68.14-.68.14-.68.31-1.59,19.91,0-.5,1.62-.06.19-.06.19-.06.19-.06.19-.06.19-.06.19-.06.19-.07.19-.07.19-.07.19-.07.19-.07.19-.07.19-.07.19-.07.19-.07.19-.07.19-.07.19-.07.19-.07.19-.07.19-.07.19-.07.19-.08.19-.08.19-.08.19-.08.19-.08.19-.08.19-.08.19-.36.86-8.71.14,0,.16-.06.23-.06.22-.06.22-.06.22-.07.22,0,.06,6-.09-.64,1.67-.06.14-.06.15-.06.15-.06.16-.07.16-.07.16-.07.17-.07.17-.08.17-.08.18-.08.18-.09.18-.09.18-.09.19-.09.19-.07.14-.07.13-.07.13-.07.13-.06.12-.06.12-.06.12-.06.12-.06.11-.06.11-.06.11-.06.11-.06.1-.06.1-.06.1-.36.62-5.77.2,0,.07-.12.21-.12.21-.13.2-.13.2-.13.2,7.89-.27L256,107.27l-.1.14-.1.14-.1.14-.1.14-.1.14-.1.14-.1.14-.1.14-.1.14-.1.14-.1.14-.1.14-.1.14-.1.14-.1.14-.1.14-.1.14-.1.14-.1.14-.1.14-.1.14-.1.14-.11.14-.11.14-.11.14-.11.14-.11.14-.11.14-.11.14-.11.14-.41.51-13.08.84h0l-12.53.8,1-1.79h0v0l0,0,0,0,0-.06,0-.07,0-.08,0-.08,0-.09,0-.1,0-.11,0-.11,0-.12,0-.12,0-.12,0-.13,0-.13,0-.13,0-.13,0-.13,0-.13,0-.12v-.63l0-.08,0-.07,0-.07,0-.09-.05-.1-.06-.1-.06-.1-.07-.09-.07-.09-.07-.09-.07-.09L228,108l-.08-.08-.08-.08-.07-.07h0l-.17,0-.16,0-.15,0-.15,0-.14,0-.13,0h-.06v0l-.1.19-.1.19-.1.19-.1.19-.1.19-.1.19-.1.19-.11.19-.11.19-.11.19-.11.19-.11.19-.11.19-.11.19-.11.19-.11.19-.11.19-.11.19-.11.19-.12.19-.12.19-.12.19-.12.19-.12.19-.12.19-.12.19-.12.19-.12.19-.43.64-9.37.6,1.45-2.46.38-.66.37-.66.37-.67.36-.67.36-.68.35-.68.34-.69.34-.69Zm-89,2.35h0v0h0V109l-.25.75-2.69.12,0,.11-.07.21-.07.21-.07.21-.07.21,0,0,1.51-.1,1.37-.1-.28.81-.27.84v.19h0l0,.06v0h0v0h0v0h0v0l-.34,1,0,.06,0,.12,0,.06,0,.06,0,.06,0,.06,0,.05v0h0l-.17.43-.09.24-.56.06-2.45.17h0l-.09.22-.09.22-.09.22-.09.22-.09.21,0,.08,3-.09L126,118l0,.1,0,.1,0,.1,0,.1,0,.1,0,.1,0,.1,0,.1,0,.1,0,.1,0,.1,0,.1-.43.89-7.9.52,1-2.06.16-.34.16-.34.16-.35.16-.35.16-.36.16-.36.16-.36.16-.37.16-.37.16-.37.16-.38.15-.38.15-.38.15-.39.15-.39.15-.39.15-.4.15-.4.15-.4.15-.4.15-.41.15-.41.15-.41.15-.41L122,109l.15-.42.15-.42.15-.42.14-.42.14-.42.39-1.16,2.93-.07,3.89-.09-.28,1.38v0h0v.21h0v0h0v0h0v.07h0v.06h0v.26l0,.1h0v0h0v0h0v.17l0,.1,0,.09v.05h0v.12h0l0,.08v.07h0v0h0v0h0v0h0v0h0v0h0Zm-4.57-54.41.14.36.14.36.14.36.13.36.13.36.12.36.12.36.11.36.1.35.09.35.09.35.08.34.07.34.05.33,0,.32,0,.32v.63l0,.31,0,.31-.07.3-.1.29-.19.43-.21.38-.22.34-.23.31-.18.21.16.1.2.13.2.14.21.15.21.16.21.17.21.19.21.2.21.21.21.22.2.23.2.25.19.26.19.27.18.29.17.3.17.33.17.36.17.39.16.42.16.45.16.48.16.5.16.52.15.54.15.56.14.58.14.59.13.6.12.61.11.61.1.61.09.62.08.61.07.61.05.6,0,.59,0,.58v.57l0,.55,0,.54-.06.52-.08.5-.11.48-.14.46-.18.44-.23.42-.27.37-.28.3-.29.27-.3.24-.31.22-.32.21-.33.19-.34.17-.34.16-.34.14-.35.13-.35.12-.35.11-.34.09-.34.08-.34.08-.33.07-.32.06-.31.05-.3,0-.29,0-.27,0-.26,0-.24,0-.22,0h-1l-17.8,0-.15-2.77-.1-1.68-.12-1.65L103,78.61,102.82,77l-.15-1.54-.16-1.5-.17-1.47-.18-1.44-.19-1.4-.19-1.37-.2-1.34-.21-1.3-.22-1.27-.23-1.24L100.69,62l-.25-1.18-.26-1.15-.26-1.12-.27-1.09-.28-1.06-.29-1-.3-1-.3-1-.31-.95-.32-.92-.33-.9-.33-.87-.34-.85L96.5,48l-.35-.8L95,44.7l18.75,1.8h.21l.14,0,.18,0,.21,0,.24,0,.26,0,.29.05.31.06.33.07.34.08.36.09.37.09.38.1.39.11.4.12.4.13.4.15.4.16.4.17.39.18.38.2.38.21.37.23.35.25.34.27.32.29.3.31.27.34.24.37.19.37.14.33.13.31.14.32.14.33.14.33.14.34.15.35.15.35.14.36.14.36Zm-14.48,54.2,0,.17,0,.17,0,.16,0,.16,0,.15,0,.14,0,.14-.28.87-2.37.1-.07.27-.1.35-.1.35-.11.35-.11.35-.11.35-.12.35-.12.35-.12.35-.13.35-.13.35-.13.35-.13.35-.14.35-.14.34-.14.34-.14.34-.15.34-.15.34-.15.34-.15.34-.16.34-.16.34-.16.34-.16.34-.17.34-.17.34-.17.34-.17.34-.46.89-2.31.15H98.08l1-1.95.17-.33.17-.33.16-.33.16-.33.16-.33.16-.33.15-.33.15-.33.15-.33.15-.33.15-.33.14-.33.14-.33.14-.33.14-.33.13-.33.13-.33.13-.33.12-.33.12-.33.12-.33.12-.33.11-.33.11-.33.11-.33.1-.33.07-.23-3,.13,1.74-4.79,9.18-.22-.22,1.43,0,.14,0,.15,0,.16,0,.17,0,.18,0,.19,0,.2Zm.7-.93.11-.43.31-1.27,4.42-.1-.38,1.59,0,.19,0,.19,0,.19,0,.19,0,.19-.05.19-.05.19-.05.19-.05.19-.05.19-.06.19-.06.19-.06.19-.06.19-.06.19-.06.19-.06.19-.06.19-.06.19-.06.19-.06.19-.06.19,0,.05,1.23-.08v0l.06-.17.06-.17.06-.17.06-.18.06-.17.06-.17.06-.17.06-.18.06-.17.06-.17.06-.18.06-.18.06-.18.06-.17.06-.18.06-.18.06-.18.06-.18.06-.18.06-.18.06-.18.06-.18.06-.18.06-.18.05-.18.05-.18.05-.18.28-.95,4.44-.11-.51,1.84-.11.4-.12.4-.12.4-.12.4-.13.4-.13.4-.13.4-.13.4-.14.4-.14.4-.14.4-.14.4-.15.4-.15.4-.15.4-.15.4-.16.4-.16.4-.16.4-.16.4-.17.4-.17.4-.17.4-.17.4-.17.4-.18.4-.18.4-.18.4-.18.4-.19.4-.46,1-4.71.31.82-1.83.07-.16.07-.16.07-.16.07-.16.07-.16.07-.16.07-.16.07-.16.07-.16.07-.16.07-.16.07-.16.07-.16.07-.16.07-.16.07-.16.07-.16.07-.16.07-.16.07-.16,0-.09-1.24.09v0l-.07.16-.07.16-.07.16-.07.16-.07.16L112,117l-.07.16-.07.16-.07.16-.08.16-.07.16-.08.16-.08.16-.08.16-.08.16-.08.16-.08.16-.08.16-.08.16-.08.16-.08.16-.08.16-.08.16-.08.16-.08.16-.08.16-.08.16-.37.72-4.7.31,1.06-2.1.18-.37.18-.37.18-.37.18-.38.18-.38.18-.38.18-.38.18-.38.17-.38.17-.39.17-.39.17-.39.16-.39.16-.39.16-.4.16-.4.15-.4.15-.4.15-.41.15-.41.14-.41.14-.41.14-.42.13-.42.13-.42.13-.42.12-.43.12-.43.11-.43Zm18.85-19,.24.25.21.27.18.3.15.32.12.33.08.35,0,.36v.37l0,.34,0,.19,0,.16,0,.16,0,.16,0,.16,0,.16,0,.16,0,.16,0,.16,0,.16,0,.16,0,.16,0,.16,0,.16,0,.16,0,.16,0,.16,0,.16,0,.16,0,.16,0,.16,0,.16,0,.16,0,.16,0,.16,0,.16,0,.16,0,.16,0,.16,0,.16,0,.16,0,.16,0,.16,0,.16,0,.16,0,.16,0,.16,0,.16,0,.16,0,.16,0,.16,0,.16,0,.16,0,.16,0,.16,0,.16,0,.16,0,.16,0,.16,0,.16,0,.16,0,.16,0,.16,0,.16,0,.16,0,.16,0,.16,0,.16,0,.16,0,.16,0,.16,0,.16,0,.16-.06.19-.12.33-.16.33-.18.32-.21.3-.23.28-.25.26-.26.24-.28.23-.29.21-.31.18-.32.16-.33.14-.34.11-.35.08-.36.05-.34,0H117.6l-.34,0-.36-.06-.34-.1-.33-.14-.3-.18-.28-.21-.24-.25-.21-.28-.17-.3-.13-.32-.09-.33-.05-.34,0-.35,0-.35.06-.35.09-.33.06-.18,0-.16,0-.16,0-.16,0-.16,0-.16,0-.16,0-.16,0-.16,0-.16.05-.19.08-.29,0-.16,0-.16,0-.16,0-.16,0-.16,0-.16,0-.16,0-.16,0-.16,0-.16.08-.3,0-.17,0-.16,0-.16,0-.16,0-.16,0-.16,0-.16,0-.16,0-.16,0-.16,0-.16,0-.16,0-.16,0-.16,0-.16,0-.16,0-.16,0-.16,0-.16,0-.16,0-.16,0-.17.06-.3,0-.16,0-.16,0-.16,0-.16,0-.16,0-.16,0-.16,0-.16,0-.16,0-.16,0-.16,0-.16,0-.16,0-.16,0-.18.07-.33.1-.34.13-.33.15-.31.18-.3.2-.28.22-.26.24-.24.26-.22.28-.2.3-.17.32-.15.33-.12.34-.09.36-.06.34,0h6.34l.34,0,.36.06.34.09.33.13.31.16.29.19.27.22Zm-8.36,7.93,0,.2,0,.2,0,.2,0,.2-.05.2-.05.2L121,98l-.05.2-.05.2-.05.2-.05.2-.05.2-.05.2-.06.2-.06.2,0,.14h3l0,0,0,0,0,0,0,0,0,0,0,0,0,0,0,0,0,0v-.07l0-.17L124,99l.05-.19.05-.2.05-.19.05-.19.05-.19.05-.19.05-.19.05-.19.05-.19,0-.19,0-.19,0-.19,0-.19,0-.2,0-.19,0-.19,0-.19,0-.19,0-.19,0-.19,0-.19,0-.19,0-.19,0-.19,0-.19,0-.19,0-.19,0-.19,0-.2v0h-3.16l0,0,0,0,0,0,0,0,0,0,0,0v.11l0,.17,0,.2,0,.2,0,.2,0,.2,0,.2,0,.2,0,.2,0,.2,0,.2,0,.2,0,.2,0,.2,0,.2,0,.2Zm-4.3-4.9v.94l-.14,1.09h-3.27l0,.07,0,.18,0,.18,0,.18,0,.18,0,.18,0,.18,0,.18,0,.18,0,.18,0,.18-.05.18L113,96l-.05.18-.05.18-.05.18-.05.18-.05.18-.05.18-.05.18-.05.18-.06.18-.06.18-.06.18-.06.18-.06.18-.06.18-.06.18-.06.19-.06.19-.06.18-.06.18-.06.18-.06.18-.06.18-.06.18-.06.18-.06.18-.06.18-.07.18-.07.18-.07.18-.07.18-.07.18-.07.18-.07.18-.07.18-.07.18-.07.18-.07.18-.07.18-.07.18-.07.18-.07.18-.07.18-.07.18-.07.18-.07.18-.07.18-.34.89H104l.65-1.69.07-.18.07-.18.07-.18L105,103l.07-.18.07-.18.07-.18.07-.18.07-.18.07-.18.07-.18.07-.18.07-.18.07-.18.07-.18.07-.18.06-.18.06-.18.06-.18.06-.18.06-.18.07-.19.12-.35.06-.18.06-.18.06-.18.06-.18.06-.18.06-.18.06-.18.06-.18.06-.18.06-.18.06-.18.05-.18L107,97l.05-.18.1-.34.06-.2.05-.18.05-.18.05-.18,0-.18,0-.18,0-.18,0-.18,0-.18,0-.18,0-.18,0-.18,0-.18,0-.18,0-.18,0-.07h-4.35l.17-1.36V89.18l0-.23.09-1.14h13.22l-.1,1.31v2.6Zm61.71,20.39.26-.59.25-.59.24-.59.24-.59.23-.59.23-.59.22-.59.21-.59.21-.59.2-.59.19-.59.19-.59.18-.59.18-.58.17-.59.16-.58.16-.58.15-.58.15-.58.14-.58.13-.58.13-.58.12-.58.11-.58.08-.45-5.37.09.57-1.72.07-.23.07-.23.07-.23.07-.23.07-.23.07-.23.06-.23.06-.23.06-.23.06-.23.06-.23.06-.23.06-.23.05-.23.05-.23.05-.23,0-.23,0-.23,0-.23,0-.23,0-.23,0-.23,0-.23,0-.23,0-.23,0-.23,0-.23,0-.23,0-.23,0-.23.15-1.21,20.56,0-.25,1.51,0,.23,0,.23,0,.23,0,.23,0,.23,0,.23,0,.23,0,.23,0,.23-.05.23L200,92l-.05.23-.05.23-.06.23-.06.23-.06.23-.06.23-.06.23-.07.23-.07.23-.07.23-.07.23-.07.23-.07.23-.08.23-.08.23-.08.23-.08.23-.08.23-.09.23-.36.93-4.3.07-.11.41-.16.61-.17.61-.17.61-.18.61-.18.61-.19.61-.19.61-.2.6-.21.6-.21.6-.22.6-.22.6-.23.6-.23.6-.24.59-.24.59-.25.59-.25.59-.26.59-.27.59-.27.59-.28.58-.29.58-.29.58-.3.58-.3.58-.31.57-.32.57-.32.57-.62,1.08-9.84.63,1.14-2.31.28-.59.28-.59.27-.59.26-.59ZM133.87,97l.15-1,.14-1,.13-1,.12-1,.11-1,.09-1,.08-1,.15-2.08,20,0-.17,1.47,0,.24,0,.24,0,.24,0,.24,0,.24,0,.24,0,.24,0,.24,0,.24,0,.24,0,.24,0,.24,0,.24,0,.24,0,.24,0,.24,0,.24,0,.24,0,.24,0,.24,0,.24,0,.24,0,.24,0,.24-.05.24-.05.24-.05.24-.05.24-.06.24-.06.24-.25,1.05-8.28.32,0,.15,0,.16,0,.16,0,.16,0,.16,0,.16,0,.16,0,.16,0,.16,0,.16,0,.16,0,.16,0,.16,0,.16,0,.16,0,.16,0,.16h0l7.92-.11-.58,1.7-.07.21-.07.21-.07.21-.08.21-.08.21-.08.21-.08.21-.08.21-.08.21-.08.21-.08.21-.08.21-.08.21-.09.21-.09.21-.09.21-.09.21-.09.21-.09.21-.09.21-.09.21-.09.21-.09.21-.09.21-.1.21-.1.21-.1.21-.1.21-.1.21-.1.21-.38.79-7.27.49-.1.25-.12.3-.13.3-.13.3-.13.3-.13.3-.13.3-.13.3-.13.3-.13.3-.14.3-.14.3-.14.3-.14.3-.14.3-.14.3-.14.3-.14.3-.14.3-.15.3-.15.3-.15.3-.15.3-.15.3-.15.3-.15.29-.15.29-.15.29-.15.3-.44.85-11.2.72,1.4-2.56.42-.8.41-.81.39-.82.38-.82.37-.83.36-.84.35-.85.33-.86.32-.87.31-.87.3-.88.29-.89.27-.9.26-.91.25-.92.24-.92.23-.93.22-.94.21-.95.19-1,.18-1,.17-1,.16-1Zm76.39-4-.12.53L210,94l-.13.52-.14.52-.14.52-.15.52-.15.52-.16.52-.16.52-.17.52-.17.51-.18.51-.18.51-.18.51-.19.51-.19.51-.19.51-.2.51-.2.51-.21.51-.21.51-.21.51-.21.51-.22.51-.18.42-.06.23-.05.26,0,.23v.46l0,.07h.47l.19,0,.14,0,.18-.08.21-.13.23-.18.25-.24.26-.29.27-.34.28-.39.28-.43.28-.47.28-.51.28-.55.28-.58.28-.62.27-.65.27-.67.26-.7.26-.72.25-.74.24-.76.23-.78.23-.79.22-.8.21-.81.2-.82.18-.82.17-.83.16-.83.15-.83.14-.82.27-1.77L223,88l-.14,1.67,0,.48-.06.48-.07.48-.07.47-.08.47-.09.47-.1.46-.1.46-.11.46-.12.46-.12.45-.13.45-.13.45-.14.44-.14.44-.15.44-.15.43-.15.43-.16.43-.16.42-.16.42-.17.42-.17.41-.17.41-.17.41-.17.4-.18.4-.18.4-.18.39-.18.39-.18.39-.44.94-.43.89-.42.83-.41.79-.4.74-.4.69-.39.65-.39.6-.38.56-.38.53-.38.49-.38.45-.38.42-.38.39-.38.35-.39.32-.39.29-.39.27-.4.24-.4.21-.41.18-.41.16-.41.14-.42.12-.42.1-.42.08-.43.07-.43.06-.43,0-.44,0-.45,0-.45,0-7.22.46-.35,0h-.35l-.33,0-.32,0-.31,0-.3-.07-.29-.09-.27-.11-.26-.13-.25-.15-.23-.18-.21-.2-.18-.22-.16-.23-.13-.24-.1-.25-.08-.25-.06-.26,0-.26,0-.26v-.51l0-.26,0-.26,0-.26.06-.26.07-.26.08-.26.09-.26.09-.26.1-.26.11-.26.28-.65.27-.64.27-.64.26-.64.26-.63.25-.63.25-.63.24-.63.24-.63.23-.63.23-.63.22-.63.22-.63.21-.63.2-.63.2-.63.19-.63.19-.63.18-.63.17-.63.17-.63.16-.63.15-.63.15-.64.14-.64.13-.64.12-.64.12-.64.11-.65.1-.65.1-.65.22-1.63,9.95,0-.26,1.79-.08.54-.09.53-.1.53-.1.53-.11.53-.12.53ZM155.4,87.9l10.52,0-.26,1.85-.09.59-.09.59-.09.59-.1.59-.1.59-.1.59-.11.59-.11.59-.12.59-.12.59-.13.58-.13.58-.14.58-.14.58-.15.58-.15.58-.16.58-.16.58-.17.58-.17.58L163,102l-.19.58-.19.58-.2.58-.2.58-.21.57-.22.57-.22.57-.23.57-.24.57-.21.48-.06.26-.05.28,0,.24v.34l0,.1,0,.06v0h0l.06,0,.1,0,.15,0h.2l.26,0,.22,0L162,109l.2-.1.23-.15.26-.21.27-.27.28-.32.29-.38.3-.43.3-.48.3-.53.3-.57.3-.61.29-.65.29-.69.29-.72.28-.75.27-.78.27-.8.26-.83.25-.85.24-.87.23-.88.23-.89.22-.9.21-.91.19-.92.18-.92.17-.92.16-.92.15-.92.28-1.87,9.34,0-.14,1.72,0,.53-.05.53-.06.53-.07.52-.07.52-.08.52-.08.52-.09.51-.09.51-.1.51-.1.51-.1.5-.11.5-.11.5-.12.49-.12.49-.12.49-.13.48-.13.48-.13.48-.14.47-.14.47-.14.47-.14.46-.15.46-.15.45-.15.45-.15.45-.16.44-.16.44-.16.43-.4,1.07-.38,1-.36.94-.35.88-.33.82-.32.77-.31.72-.3.66-.3.62-.29.57-.29.53-.29.49-.29.45-.29.42-.3.39-.31.35-.32.32-.33.29-.35.26-.36.23-.37.2-.38.17-.39.14-.39.11-.4.09-.41.08-.42.06-.43.05-.44,0-.46,0-.47,0-.5,0-10.93.7-.38,0h-.73l-.34,0-.32,0-.31-.06-.3-.08L150,118l-.27-.13-.26-.15-.24-.18-.22-.21-.19-.23-.16-.25-.12-.26-.1-.27-.07-.27,0-.27,0-.27v-.26l0-.26,0-.26,0-.26.06-.26.07-.26.08-.26.08-.26.09-.27.1-.27.1-.27.11-.27.11-.28.31-.72.29-.71.29-.71.28-.71.27-.71.26-.71.25-.72.24-.72.24-.72.23-.72.22-.72.21-.72.21-.72.2-.72.19-.72.18-.73.18-.73.17-.73.17-.73.16-.73.15-.73.15-.73.14-.73.14-.73.13-.73.13-.73.12-.74.12-.74.11-.74.11-.74.1-.74.22-1.71Zm77.86-21,.43.49.42.49.42.49.41.49.41.49.41.49.4.5.4.5.39.5.39.5.39.5.38.5.38.51.37.51.37.51.37.51.36.51.36.51.36.51L241,77l.35.52.35.52,1.49,2.26-9-.14.06.09.09.14.09.14.09.14.09.14.09.14.09.14.09.14.09.14.09.14.09.14.09.14.09.14.09.14.09.14.09.14.09.14.09.14.09.14,3.26,5.28-5.52-4.25-.74-.56-.74-.56-.74-.55-.74-.55-.74-.54-.74-.53-.74-.53-.74-.52L227,79l-.74-.51-.74-.51-.73-.5L224,77l-.73-.49-.73-.48-.73-.47-.73-.47-.73-.46-.73-.45-.73-.45-.73-.44-.73-.43-.73-.43L216,72l-.73-.41-.73-.4-.73-.4-.73-.39L212.3,70l-.73-.37L210,68.84l3.41-11.67,1.43,1.18.13.11.13.11.13.11.13.11.13.11.13.11.13.11.13.11.13.11.13.11.13.11.13.11.13.11.13.11.13.11.13.11.13.11.13.11.13.11.13.11.13.11.13.11.13.11.13.11.13.11.12.11.13.11.21.19,10.36.76.76.76.46.47.46.47.45.48.45.48.45.48.44.48.44.48.43.49Zm10.37,13.34-.59-1-.28-.49-.28-.49-.28-.49-.29-.49-.29-.49-.29-.48-.3-.48-.3-.48-.3-.48-.31-.48-.31-.48-.31-.48-.32-.48-.32-.48-.32-.48-.33-.47-.33-.47-.33-.47-.34-.47-.34-.47-.34-.47-.35-.47-.35-.47-.35-.47-.36-.46-.36-.46-.37-.46L234,65.9l-.37-.46-.38-.46-2.06-2.47L238,63l.72.75.42.45.42.45.41.45.4.46.4.46.39.46.38.47.38.47.37.47.37.47.36.48.35.48.35.48.34.48.34.48.33.49.33.49.32.49.32.49.31.49.31.49.31.49.3.5.3.5.29.5.29.5.29.5.28.5.28.5.28.5,1.18,2.17-6.5-.1Zm6.93.1-.48-1.15-.2-.47-.21-.47-.22-.47-.22-.47-.23-.47-.23-.47-.24-.47-.25-.47L248,75l-.26-.47-.26-.46-.27-.46-.28-.46-.28-.46-.29-.46-.29-.46-.3-.45-.31-.45-.31-.45-.32-.45-.32-.45-.33-.45-.33-.44-.34-.44-.35-.44-.35-.44-.36-.44-.36-.43-.37-.43-.37-.43-2.19-2.47,6.34.47.7.74.4.44.4.44.39.44.39.45.38.45.37.45.37.45.36.46.36.46.35.46.35.46.34.46.34.47.33.47.33.47.32.47.32.47.31.47.31.48.3.48.3.48.3.48.29.48.29.48.28.48.28.48.28.48.27.48.27.48.27.48,1.18,2.15-6.68-.1Zm7.11.11-.47-1.14-.2-.46-.2-.46-.21-.46-.21-.46-.22-.46-.23-.45-.23-.45-.24-.45-.24-.45L255,74.8l-.25-.45-.26-.45-.27-.45-.27-.45-.28-.44-.28-.44-.29-.44-.29-.44-.3-.44-.3-.44-.31-.44-.32-.43-.32-.43-.33-.43-.33-.43-.34-.43-.34-.42-.35-.42-.35-.42-.36-.42-2.14-2.45,5.74.42.67.75.37.43.36.43.35.43.34.43.34.44.33.44.32.44.31.44.31.45.3.45.29.45.29.45.28.45.27.46.27.46.26.46.26.46.25.46.25.46.24.47.24.47.23.47.23.47.23.47.22.47.22.47.22.47.21.47.21.47.21.48.89,2-4.54-.07Zm6.38.1-.47-1.12L263.4,79l-.2-.45-.2-.44-.21-.44-.21-.44-.22-.44-.22-.44-.23-.44-.23-.44-.24-.44-.24-.44-.25-.43-.25-.43-.26-.43-.26-.43-.27-.43-.28-.43-.28-.43-.29-.43-.29-.42-.3-.42-.3-.42-.31-.42-.31-.42-.32-.42-.32-.41-.33-.41-.33-.41-.34-.41-.34-.41-2.07-2.43,4.75.35.67.73.37.41.36.42.36.42.35.42.34.42.34.43.33.43.32.43.32.43.31.44.3.44.3.44.29.44.29.44.28.45.27.45.27.45.26.45.25.46.25.46.24.46.24.46.23.46.22.47.22.47.21.47.2.47.2.47.19.47.19.48.76,2-3.94-.06ZM172.37,68.1l.2.45.2.45.2.45.19.44.19.44.19.43.19.42.18.41.18.4.18.38.18.37.17.35.17.34.17.32.16.3.16.27.15.25.14.22.14.2.12.16.11.13.09.09.06.05h0l.06,0,.12.05.13.05.13,0,.14,0,.14,0,.15,0,.16,0,.16,0,.17,0,.18,0,.19,0,.2,0,.21,0,.22,0,.23,0,.24,0h11.23l0-.1-.08-.3-.09-.32-.1-.34-.1-.36-.11-.38-.12-.39-.12-.41-.13-.42-.14-.44-.14-.45-.15-.46-.16-.47-.16-.47-.17-.48-.17-.48-.18-.49-.19-.49-.19-.49-.2-.49-.2-.49L187,67l-.21-.48-.22-.48-.23-.49-.24-.5-.25-.5-.26-.51-.26-.51-.27-.51-.27-.51-.28-.51-.28-.5L184,61l-.28-.49-.28-.48-.27-.47-.27-.46-.26-.44-.26-.43-.25-.41-.24-.39-.23-.37-.22-.35-.21-.33-.19-.3-.18-.28-.16-.25-.14-.22-.12-.19-.1-.16-.08-.13-.06-.09,0-.06-1.28-2,12,1.15.56.7.27.34.27.34.27.34.26.35.26.35.26.35.26.36.26.36.25.36.25.37.25.37.25.37.25.38.25.38.24.38.24.39.24.39.24.39.24.4.23.4.23.4.23.41.23.41.23.41.22.42.12.22.06-.18.11-.33.11-.34.11-.34.11-.34.1-.34.1-.34.1-.34.1-.34.1-.34.1-.34.1-.34.1-.35.1-.35.1-.35.1-.35.1-.35.09-.35.09-.35.09-.35.09-.35.09-.35.09-.35.09-.36.32-1.28,11.45,1.1-.38,1.65-.1.42-.1.42-.1.42-.1.42-.1.42-.1.42-.1.42-.1.42-.1.42-.11.42-.11.42-.11.42-.11.42-.11.42-.11.42-.11.42-.11.41-.11.41-.12.41-.12.41-.12.41-.12.41-.12.41-.12.41-.12.41-.13.41-.13.41-.13.41-.08.24.65.28.8.36.8.37.79.38.79.39.79.4.79.41.79.42.79.43.78.45.78.45.78.46.78.47.78.48.78.49.77.5.77.51.77.52.77.52.77.53.77.54.77.55.77.55.76.56.76.57.76.57.76.58.76.59.76.59.76.6,3.25,2.58-17.44,0-.84-.54-.56-.36-.56-.36-.55-.36-.55-.36-.55-.36-.54-.36-.54-.35L212,83.1l-.53-.35-.53-.34-.52-.34-.52-.34-.52-.33-.51-.32-.51-.32-.5-.31-.5-.31-.49-.3-.49-.29-.48-.28-.48-.28-.47-.27-.46-.26-.46-.25-.45-.24-.32-.17.06.19.09.3.09.3.09.3.09.3.08.3.08.3.08.3.08.31.08.31.08.31.08.31.08.31.08.31.08.31.08.32.08.32.07.32.07.32.07.32.07.32.07.32.07.32.36,1.67L174,86.44h-1.51l-.32,0-.35,0-.37-.06-.38-.08-.4-.1-.41-.12-.42-.15-.43-.17-.44-.2-.44-.23-.45-.27-.44-.3-.44-.34-.43-.38-.42-.42-.41-.46-.4-.51-.38-.55-.36-.6-.34-.65-.32-.7-.29-.75-.26-.78-.24-.79-.25-.79-.26-.8-.26-.82-.27-.82-.28-.83-.28-.83-.28-.83-.28-.83-.28-.82-.28-.82-.28-.81-.28-.79-.28-.78-.27-.76-.27-.73L159,65l-.25-.68-.24-.65-.23-.62L158,62.5l-.21-.55-.2-.51-.18-.46-.17-.41-.15-.36L157,59.9l-.11-.25-.08-.16-.08-.06-.13-.29,0-.07,0-.11-.06-.15-.07-.18-.08-.21-.08-.24-.08-.26-.09-.28-.08-.31L155.9,57l-.07-.34-.06-.35,0-.37,0-.38v-.78l0-.4.07-.4.11-.4.15-.4.2-.39.25-.37.31-.34.37-.31.42-.26.46-.21.5-.16.54-.11.58-.06h.62l.64,0,.64.06.63.06.63.06.64.06.64.06,1,.1.88.08.63.06,1.84.18.59.06.58.06.56.05.54.05.53.05.5,0,.48,0,.46,0,.43,0,.4,0,.37,0,.34,0,.31,0,.27,0,.24,0,.2,0,.16,0h.11l.56.05.3.38,0,0,0,0,0,0,0,.06.05.07.06.08.07.09.08.1.08.11.09.12.1.13.1.14.11.15.11.15.11.16.12.17.12.17.12.18L178,55l.13.19.13.19.13.2.13.2.13.2.13.2.13.21.13.21.12.21.12.21.12.21.11.21.21.39.2.37.18.35.17.33.16.3.15.28.13.26.12.23.11.21.09.18.08.16.07.13.05.1,0,.08,0,0,.84,1.69-10.47-.4H171l-.1,0-.1,0-.1,0-.09,0-.08,0-.07,0-.06,0,0,0,0,0,0,0,0,0,0,0,0,.06,0,.08v.25l0,.18,0,.21.07.25.1.28.13.32.17.37.2.42.21.44.21.44.21.45.21.45.2.45.2.46.2.46ZM151.28,53.56l.27.46.29.49.3.51.31.54.32.57.33.59.34.62.34.64.35.66.36.69.36.71.37.73.37.75.38.77.38.79.38.81.38.83.38.85.38.87.37.87.36.87.35.87.34.87.33.87.31.86.3.85.29.84.28.83.27.81.26.8.25.78.24.76.22.73.21.71.2.68.19.65.18.62.16.59.15.55.14.52.13.48.11.44.1.39.09.35.08.3.06.25,0,.2,0,.15,0,.09.32,1.39-10.95,0-.24-.8,0-.07,0-.06,0-.08,0-.1,0-.12,0-.13,0-.15-.09-.29-.08-.26-.07-.22-.07-.23-.07-.25-.08-.26-.08-.28-.09-.29-.09-.3-.1-.32-.1-.33-.22-.7-.11-.37-.12-.38-.25-.8-.13-.42-.13-.43-.18-.58-6.43-.14.09.43.08.43.08.42.08.4.07.39.07.38.06.37.06.36.05.34.05.33,0,.32,0,.3,0,.29,0,.27,0,.26,0,.24,0,.23,0,.21,0,.19,0,.18,0,.16v.63l.09,1.2-11.48,0-.1-1v-.19l0-.37,0-.25,0-.28,0-.32,0-.36,0-.39,0-.42-.05-.45-.06-.47-.06-.5-.07-.52-.07-.54-.08-.56-.08-.58-.08-.59L133,78l-.09-.61-.1-.62-.1-.63-.1-.63-.11-.63-.11-.63-.11-.63-.12-.63-.12-.62-.12-.61-.13-.6-.13-.59-.13-.58-.14-.58-.14-.58-.15-.58-.15-.58-.16-.58-.16-.58-.16-.58-.17-.58-.17-.58-.17-.57-.17-.57-.17-.57-.17-.56-.18-.56-.18-.56-.18-.55-.18-.54-.18-.54-.17-.53-.17-.53-.17-.52-.17-.51-.17-.51-.16-.5-.16-.49-.16-.48-.16-.47-.15-.46-.15-.45-.14-.44-.15-.46-.13-.49-.08-.5v-.49l0-.47.11-.45.18-.42.23-.38.27-.33.31-.28.33-.24.34-.2.35-.17.36-.14.37-.11.37-.09.37-.07.37-.06.36,0,.36,0,.35,0h1.77l.21,0,.18,0h.34l15,1.44.31.45,0,.06.06.09.08.12.1.16.12.19.14.22.16.25.18.28.2.31.22.34.23.37.25.4.26.43ZM142,58.45h-2.51l-.47,0-.31.06-.18.07-.08.06,0,0,0,0,0,.06V59l0,.16,0,.16,0,.16,0,.14,0,.1,0,.06h0v0l0,0,0,.05,0,.07,0,.08,0,.09,0,.11.05.13.06.14.07.16.07.18.08.2.09.22.09.24.1.26.11.28.11.3.12.33.13.35.14.37.14.4.15.42.16.45.17.48.17.5.18.53.19.56.2.59.2.62.2.6,5.94.27-.09-.25L147.4,68l-.22-.58-.22-.57-.22-.57-.22-.56-.22-.54-.22-.53-.22-.52-.21-.51-.21-.49-.2-.48-.2-.46-.19-.44-.19-.42-.18-.4-.17-.38-.16-.36-.15-.33-.14-.31-.13-.29-.12-.26-.11-.23-.1-.21v0H142Zm-26.57-1.91-.12-.24-.13-.22-.13-.2-.13-.18-.13-.16-.13-.14-.13-.13-.13-.12-.13-.1-.13-.09-.13-.08-.14-.07-.14-.06-.14-.06-.14,0-.15,0-.15,0-.15,0-.16,0-.16,0-.16,0H111l-.33,0-.33,0-.33,0-.32,0-.3,0,.06.16.06.17.06.17.06.18.06.18.06.18.06.19.06.19.06.19.05.19.05.2.05.2,0,.2,0,.19,0,.19,0,.19,0,.19,0,.19,0,.19.05.23.08.34,0,.19,0,.19,0,.18,0,.18,0,.18,0,.17,0,.17,0,.16,0,.16,0,.15,0,.14,0,.14v0h4.49l0,0,0,0,0,0,0,0,0,0,0,0,0,0,0,0,0,0,0-.06,0-.07,0-.09,0-.1,0-.12,0-.15v-.6l0-.25,0-.28L116,58.1l-.09-.34-.1-.34-.11-.32-.11-.29-.12-.27Zm2.22,12.07-.1,0-.11,0-.13,0-.14,0-.15,0h-3.59l0,.13,0,.17,0,.18,0,.18,0,.19,0,.19,0,.19,0,.19,0,.19,0,.19,0,.19,0,.19,0,.19,0,.19,0,.19,0,.18,0,.18.07.34.07.33.06.32.06.3.06.29.05.27,0,.25,0,.23v0h4.43l.11,0,.1,0,.08,0,.06,0,0,0,0,0,0-.07,0-.13,0-.21V73l-.08-.44-.06-.25L119.4,72l-.06-.26-.06-.25-.06-.24-.06-.23-.06-.22L119,70.6l-.07-.2-.07-.19-.07-.18-.07-.17-.07-.16-.07-.14-.07-.13-.07-.12-.07-.11-.07-.1-.07-.09-.08-.08-.08-.07L118,68.8l-.08-.06-.08-.05-.09,0-.1,0Zm113,31.24.19,0,.15,0,.15-.05.14-.07.14-.09.14-.11.14-.13.15-.15L232,99l.15-.21.14-.24.14-.26.14-.29.13-.32.13-.35.12-.36,0-.1h0l-.06,0-.08,0-.1,0-.11,0-.12,0h-1.12l0,.13,0,.17-.05.17-.05.17-.05.17-.05.17-.05.17-.05.17-.05.17-.05.17-.05.17-.06.17-.06.17-.06.17-.06.17-.06.17-.06.17-.06.17-.05.15h.31Z"/></g><g id="Layer_3" data-name="Layer 3"><path class="cls-7" d="M257.71,109.76A80.72,80.72,0,0,1,111.82,124l-.21-.36"/><path class="cls-7" d="M259.65,63.05A80.73,80.73,0,0,0,111.34,43.27"/></g></svg>