<svg xmlns="http://www.w3.org/2000/svg" viewBox="0 0 288.28 215.5"><defs><style>.cls-1{font-size:48px;font-family:MyriadPro-Regular, Myriad Pro;}.cls-1,.cls-5,.cls-7{fill:#f7403c;}.cls-2{letter-spacing:0em;}.cls-3{letter-spacing:0.02em;}.cls-4{fill:#ef433f;}.cls-5,.cls-6{stroke:#fff;stroke-width:9px;}.cls-5,.cls-6,.cls-7,.cls-8{stroke-miterlimit:10;}.cls-6,.cls-8{fill:none;}.cls-7,.cls-8{stroke:#f7403c;stroke-width:4px;}</style></defs><title>chantry</title><g id="Chantry_Island" data-name="Chantry Island"><text class="cls-1" transform="translate(0 203.5)">Cha<tspan class="cls-2" x="77.61" y="0">n</tspan><tspan x="104.06" y="0">t</tspan><tspan class="cls-3" x="119.95" y="0">r</tspan><tspan x="136.85" y="0">y Island</tspan></text></g><g id="Circle"><g id="Circle-2" data-name="Circle"><path class="cls-4" d="M144.14,9.5A78.5,78.5,0,1,1,65.64,88a78.59,78.59,0,0,1,78.5-78.5m0-5A83.5,83.5,0,1,0,227.64,88a83.5,83.5,0,0,0-83.5-83.5Z"/></g></g><g id="Layer_5" data-name="Layer 5"><polygon class="cls-5" points="95.44 103.42 100.42 113.72 104.86 108.71 95.44 103.42"/><polygon class="cls-5" points="197.21 103.42 192.23 113.72 187.8 108.71 197.21 103.42"/><path class="cls-6" d="M130.33,93.71l1.93-53.36a1.36,1.36,0,0,0-.28-.87h0a1.36,1.36,0,0,1,1.08-2.18h13"/><path class="cls-6" d="M158.55,93.71l-1.93-53.36a1.36,1.36,0,0,1,.28-.87h0a1.36,1.36,0,0,0-1.08-2.18h-13"/><path class="cls-6" d="M134.29,35.84l-.91-3.4a1.35,1.35,0,0,1,.94-1.66l.06,0,2.73-.6c2.58-.56,5.61-1.18,6.63-1.28h1.5c1.58.24,6.79,1.34,9.32,1.88a1.36,1.36,0,0,1,1,1.64v0l-.91,3.38"/><path class="cls-6" d="M137.17,30.16v-12a1.36,1.36,0,0,1,1.36-1.36h12.54a1.36,1.36,0,0,1,1.36,1.36h0v12"/><path class="cls-6" d="M136.33,15.56h16.94a1.36,1.36,0,0,0,1-2.33L145.8,4.89a1.36,1.36,0,0,0-1.91,0l-8.47,8.34a1.36,1.36,0,0,0,.91,2.33Z"/><path class="cls-6" d="M131.41,63.85c-38.1,4.45-64.22,32.86-71,70.21H90.09a58.15,58.15,0,0,1,112,0h29.68c-7-38.4-34.71-67.57-74.32-70.7"/></g><g id="Layer_4" data-name="Layer 4"><polygon class="cls-7" points="95.44 103.42 100.42 113.72 104.86 108.71 95.44 103.42"/><polygon class="cls-7" points="197.21 103.42 192.23 113.72 187.8 108.71 197.21 103.42"/><path class="cls-8" d="M130.33,93.71l1.93-53.36a1.36,1.36,0,0,0-.28-.87h0a1.36,1.36,0,0,1,1.08-2.18h13"/><path class="cls-8" d="M158.55,93.71l-1.93-53.36a1.36,1.36,0,0,1,.28-.87h0a1.36,1.36,0,0,0-1.08-2.18h-13"/><path class="cls-8" d="M134.29,35.84l-.91-3.4a1.35,1.35,0,0,1,.94-1.66l.06,0,2.73-.6c2.58-.56,5.61-1.18,6.63-1.28h1.5c1.58.24,6.79,1.34,9.32,1.88a1.36,1.36,0,0,1,1,1.64v0l-.91,3.38"/><path class="cls-8" d="M137.17,30.16v-12a1.36,1.36,0,0,1,1.36-1.36h12.54a1.36,1.36,0,0,1,1.36,1.36h0v12"/><path class="cls-8" d="M136.33,15.56h16.94a1.36,1.36,0,0,0,1-2.33L145.8,4.89a1.36,1.36,0,0,0-1.91,0l-8.47,8.34a1.36,1.36,0,0,0,.91,2.33Z"/><path class="cls-8" d="M131.41,63.85c-38.1,4.45-64.22,32.86-71,70.21H90.09a58.15,58.15,0,0,1,112,0h29.68c-7-38.4-34.71-67.57-74.32-70.7"/></g></svg>