<svg id="Layer_3" data-name="Layer 3" xmlns="http://www.w3.org/2000/svg" viewBox="0 0 338.44 215.1"><defs><style>.cls-1{font-size:48px;fill:#f7403c;font-family:MyriadPro-Regular, Myriad Pro;}.cls-2{letter-spacing:0em;}.cls-3{letter-spacing:0em;}.cls-4{letter-spacing:-0.04em;}.cls-5{letter-spacing:-0.01em;}.cls-6,.cls-7,.cls-8{fill:none;stroke:#ee423f;stroke-miterlimit:10;}.cls-7{stroke-width:5px;}.cls-8{stroke-width:3px;stroke-dasharray:7.03 7.03;}</style></defs><title>christinatischler</title><g id="Audiophile_Image" data-name="Audiophile Image"><text class="cls-1" transform="translate(0 212.1)">Ch<tspan class="cls-2" x="54.48" y="0">r</tspan><tspan class="cls-3" x="70.37" y="0">istina</tspan><tspan class="cls-4" x="177.5" y="0"> </tspan><tspan class="cls-5" x="185.71" y="0">T</tspan><tspan x="208.99" y="0">ischler</tspan></text></g><g id="Layer_4" data-name="Layer 4"><path class="cls-6" d="M198.11,106.64c-3.52,10.35-11.34,17.11-21,19.24a31.18,31.18,0,0,1-6.74.72,27.61,27.61,0,0,1-7.91-1.16,29.1,29.1,0,0,1-12.65-7.81,30.9,30.9,0,0,1,0-42.79A29.1,29.1,0,0,1,162.47,67V54.74a40.8,40.8,0,0,0-21,11.63,43.33,43.33,0,0,0,0,59.76,39.88,39.88,0,0,0,28.93,12.43c19.48,0,34.78-12.91,39.56-31.91Zm-.72-21.87h12C205.14,68.16,193,56.92,177.12,54.44V66.56C186.37,68.5,193.81,74.59,197.39,84.77Z"/><path class="cls-6" d="M177.11,125.88V51.43H207.7V36.65h-76V51.43h30.73v74"/><circle class="cls-7" cx="169.72" cy="87.6" r="80.7"/><circle class="cls-8" cx="169.72" cy="87.6" r="73.84"/></g></svg>