<svg xmlns="http://www.w3.org/2000/svg" viewBox="0 0 445 251"><defs><style>.cls-1{fill:#fff;}.cls-2{font-size:48px;font-family:MyriadPro-Regular, Myriad Pro;}.cls-2,.cls-8{fill:#f7403c;}.cls-3{letter-spacing:0em;}.cls-4{letter-spacing:0em;}.cls-5{letter-spacing:-0.04em;}.cls-6{letter-spacing:-0.01em;}.cls-7,.cls-9{fill:none;stroke:#f7403c;stroke-miterlimit:10;}.cls-9{stroke-width:3px;stroke-dasharray:7.06 7.06;}</style></defs><title>christinatischler</title><g id="Layer_4" data-name="Layer 4"><rect class="cls-1" width="445" height="251"/></g><g id="Audiophile_Image" data-name="Audiophile Image"><text class="cls-2" transform="translate(52.78 241.05)">Ch<tspan class="cls-3" x="54.48" y="0">r</tspan><tspan class="cls-4" x="70.37" y="0">istina</tspan><tspan class="cls-5" x="177.5" y="0"> </tspan><tspan class="cls-6" x="185.71" y="0">T</tspan><tspan x="208.99" y="0">ischler</tspan></text></g><g id="Layer_3" data-name="Layer 3"><path class="cls-7" d="M251.87,145.2c-3.64,10.71-11.73,17.71-21.72,19.91a32.26,32.26,0,0,1-7,.75,28.57,28.57,0,0,1-8.18-1.2,30.11,30.11,0,0,1-13.09-8.08,32,32,0,0,1,0-44.28A30.11,30.11,0,0,1,215,104.23V91.49a42.22,42.22,0,0,0-21.75,12,44.83,44.83,0,0,0,0,61.84,41.27,41.27,0,0,0,29.93,12.86c20.16,0,36-13.36,40.94-33Zm-.74-22.63H263.5c-4.35-17.18-16.92-28.82-33.35-31.38v12.54C239.72,105.73,247.42,112,251.13,122.57Z"/><path class="cls-7" d="M230.15,165.11v-77H261.8V72.78H183.2v15.3H215v76.58"/><path class="cls-8" d="M222.5,47A78.5,78.5,0,1,1,144,125.5,78.59,78.59,0,0,1,222.5,47m0-5A83.5,83.5,0,1,0,306,125.5,83.5,83.5,0,0,0,222.5,42Z"/><circle class="cls-9" cx="222.5" cy="125.5" r="76.41"/></g></svg>