<?xml version="1.0" encoding="utf-8"?>
<!-- Generator: Adobe Illustrator 19.0.0, SVG Export Plug-In . SVG Version: 6.00 Build 0)  -->
<svg version="1.1" id="Layer_2" xmlns="http://www.w3.org/2000/svg" xmlns:xlink="http://www.w3.org/1999/xlink" x="0px" y="0px"
	 viewBox="0 0 50 50" style="enable-background:new 0 0 50 50;" xml:space="preserve">
<style type="text/css">
	.st0{fill:#DB4E3F;}
	.st1{fill-rule:evenodd;clip-rule:evenodd;fill:#FFFFFF;}
</style>
<rect class="st0" width="50" height="50"/>
<path class="st1" d="M17.7,23.2v4.4h7.3c-0.3,1.9-2.2,5.5-7.3,5.5c-4.4,0-7.9-3.6-7.9-8.1c0-4.5,3.6-8.1,7.9-8.1
	c2.5,0,4.2,1.1,5.1,2l3.5-3.3c-2.2-2.1-5.1-3.3-8.6-3.3c-7.1,0-12.8,5.7-12.8,12.8c0,7.1,5.7,12.8,12.8,12.8
	c7.4,0,12.3-5.2,12.3-12.5c0-0.8-0.1-1.5-0.2-2.1H17.7L17.7,23.2L17.7,23.2z M17.7,23.2"/>
<polygon class="st1" points="45.1,26.8 41.5,26.8 41.5,30.5 37.8,30.5 37.8,26.8 34.1,26.8 34.1,23.2 37.8,23.2 37.8,19.5 
	41.5,19.5 41.5,23.2 45.1,23.2 "/>
</svg>
