<svg xmlns="http://www.w3.org/2000/svg" viewBox="0 0 65 65"><defs><style>.cls-1,.cls-2{fill:#fff;}.cls-1{fill-rule:evenodd;}</style></defs><title>github</title><g id="Layer_2" data-name="Layer 2"><rect width="65" height="65"/></g><g id="Layer_1" data-name="Layer 1"><path class="cls-1" d="M32.75,8.77a24.33,24.33,0,0,0-7.69,47.41c1.22.23,1.66-.53,1.66-1.17s0-2.5,0-4.53c-6.77,1.47-8.2-2.87-8.2-2.87-1.11-2.81-2.7-3.56-2.7-3.56-2.21-1.51.17-1.48.17-1.48a5.11,5.11,0,0,1,3.73,2.51c2.17,3.72,5.69,2.64,7.08,2a5.18,5.18,0,0,1,1.54-3.25c-5.4-.61-11.08-2.7-11.08-12a9.41,9.41,0,0,1,2.51-6.53A8.74,8.74,0,0,1,20,18.86s2-.65,6.69,2.49a23.07,23.07,0,0,1,12.18,0c4.64-3.15,6.68-2.49,6.68-2.49a8.73,8.73,0,0,1,.24,6.44,9.4,9.4,0,0,1,2.5,6.53c0,9.34-5.69,11.4-11.11,12a5.82,5.82,0,0,1,1.65,4.51c0,3.26,0,5.87,0,6.68,0,.65.44,1.41,1.67,1.17a24.33,24.33,0,0,0-7.7-47.41Z"/><path class="cls-2" d="M17.63,43.7c-.05.12-.24.16-.42.07s-.28-.24-.22-.37.24-.16.42-.08.28.25.22.37Zm-.3-.22"/><path class="cls-2" d="M18.62,44.8c-.12.11-.34.06-.5-.11a.37.37,0,0,1-.07-.51c.12-.11.34-.06.5.11s.19.4.07.51Zm-.23-.25"/><path class="cls-2" d="M19.58,46.2c-.15.1-.39,0-.54-.21s-.15-.48,0-.58.39,0,.54.2.15.48,0,.59Zm0,0"/><path class="cls-2" d="M20.89,47.56c-.13.15-.42.11-.63-.09a.47.47,0,0,1-.14-.62c.14-.15.42-.11.63.09s.28.48.13.62Zm0,0"/><path class="cls-2" d="M22.7,48.34c-.06.19-.33.28-.61.2s-.46-.31-.4-.5.33-.28.61-.2.46.3.4.5Zm0,0"/><path class="cls-2" d="M24.69,48.49c0,.2-.23.37-.52.37s-.53-.16-.53-.35.23-.37.52-.37.53.16.53.35Zm0,0"/><path class="cls-2" d="M26.55,48.17c0,.2-.17.4-.45.45s-.54-.07-.58-.26.17-.4.45-.45.55.07.58.27Zm0,0"/></g></svg>