<?xml version="1.0" encoding="utf-8"?>
<!-- Generator: Adobe Illustrator 19.0.0, SVG Export Plug-In . SVG Version: 6.00 Build 0)  -->
<svg version="1.1" xmlns="http://www.w3.org/2000/svg" xmlns:xlink="http://www.w3.org/1999/xlink" x="0px" y="0px"
	 viewBox="0 0 132.9 191.8" style="enable-background:new 0 0 132.9 191.8;" xml:space="preserve">
<style type="text/css">
	.st0{display:none;}
	.st1{fill:#FFFFFF;stroke:#F7403C;stroke-miterlimit:10;}
	.st2{fill:#2E365B;}
</style>
<g id="paton_copy_2_xA0_Image_1_" class="st0">
	
		<image style="display:inline;overflow:visible;" width="263" height="410" id="paton_copy_2_xA0_Image" xlink:href="90D9A208.png"  transform="matrix(0.3937 0 0 0.3937 29.1353 29.922)">
	</image>
</g>
<g id="Robert_copy_2_xA0_Image_1_" class="st0">
	
		<image style="display:inline;overflow:visible;" width="301" height="400" id="Robert_copy_2_xA0_Image" xlink:href="90D9A209.png"  transform="matrix(0.3937 0 0 0.3937 1.445950e-003 6.941259e-004)">
	</image>
</g>
<g id="Layer_4">
	<g>
		<path class="st1" d="M132.4,91.2c0,8.9-1.2,17.1-3.5,24.6c-2.3,7.5-5.7,14-10.3,19.4c-4.5,5.4-10,9.6-16.6,12.6
			c-6.5,3-14,4.5-22.4,4.5c-6.8,0-12.7-0.9-17.9-2.7c-5.2-1.8-9.1-3.5-11.6-5.2v46.9h-21V36c5-1.2,11.2-2.5,18.6-3.9
			c7.4-1.4,16-2.1,25.8-2.1c9,0,17.1,1.4,24.3,4.3c7.2,2.9,13.4,6.9,18.5,12.2c5.1,5.3,9.1,11.7,11.8,19.3
			C131,73.2,132.4,81.8,132.4,91.2z M110.5,91.2c0-13.7-3.4-24.2-10.1-31.6c-6.8-7.4-15.8-11-27.1-11c-6.3,0-11.2,0.2-14.8,0.7
			c-3.5,0.5-6.4,1-8.5,1.6v73.9c2.6,2.1,6.2,4.1,11,6.1c4.8,2,10.1,2.9,15.8,2.9c6,0,11.2-1.1,15.4-3.3c4.3-2.2,7.8-5.2,10.5-9
			c2.7-3.8,4.7-8.3,5.9-13.5C109.9,102.9,110.5,97.3,110.5,91.2z"/>
		<g>
			<path class="st2" d="M110.6,142.8c-2.6,2-5.5,3.6-8.6,5c-3.4,1.6-7.2,2.8-11.1,3.5c1.1,2.1,2.2,4.1,3.3,6.2h23.9
				C116,152.7,113.5,147.8,110.6,142.8z M99.9,125.1c-1-1.6-2.1-3.3-3.1-4.8c-3.9-5.9-7.7-11.3-11.4-16.2c-3.7-4.9-6.7-8.8-9.1-11.8
				c10.7-3.6,18.7-9.1,24.2-16.4c2-2.7,3.7-5.7,5-8.9c2.2-5.3,3.2-11.2,3.2-17.7c0-3.5-0.3-6.8-0.8-9.9c-1.9-11.5-7.4-20.5-16.4-27
				C80,4.1,63.3,0,41.4,0c-6.3,0-13.2,0.3-20.8,0.8C13,1.3,6.2,2.3,0,3.8v153.7h21.8v-61h7.3v-18h-7.3V19.8c5-0.5,12.1-0.7,21.4-0.7
				c5.9,0,11.4,0.5,16.5,1.3c5.2,0.9,9.7,2.5,13.5,4.7c2.3,1.3,4.3,3,6,4.9c1.2,1.3,2.2,2.7,3.1,4.3c2.3,3.9,3.4,8.8,3.4,14.6
				c0,0.5,0,0.9,0,1.3c-0.1,5.7-1.3,10.3-3.3,13.8c-2.3,3.8-5.4,6.8-9.6,8.9c-4.1,2.1-9.2,3.5-15.2,4.3c-2.4,0.3-4.9,0.5-7.5,0.7
				v18.4c1.2,0,2.3-0.1,3.4-0.2c2.8,3.5,6,7.5,9.6,12.2c3.5,4.6,7.1,9.6,10.7,15c2.3,3.3,4.5,6.8,6.7,10.3c4.5-0.3,8.5-1.4,11.9-3.1
				C95.2,129.1,97.8,127.3,99.9,125.1z"/>
		</g>
	</g>
</g>
</svg>
