<svg xmlns="http://www.w3.org/2000/svg" viewBox="0 0 173.54 220.29"><defs><style>.cls-1{font-size:48px;font-family:MyriadPro-Regular, Myriad Pro;}.cls-1,.cls-7{fill:#f7403c;}.cls-2{letter-spacing:0.01em;}.cls-3{letter-spacing:0.01em;}.cls-4{letter-spacing:-0.01em;}.cls-5{letter-spacing:-0.01em;}.cls-6{fill:#ef433f;}.cls-8{fill:#fff;}</style></defs><title>mcore</title><g id="Audiophile_Image" data-name="Audiophile Image"><text class="cls-1" transform="translate(10.64 208.29)"><tspan class="cls-2">M</tspan><tspan class="cls-3" x="38.88" y="0">-</tspan><tspan class="cls-4" x="54.29" y="0">C</tspan><tspan x="81.6" y="0">o</tspan><tspan class="cls-5" x="107.95" y="0">r</tspan><tspan x="123.17" y="0">e</tspan></text></g><g id="Layer_2_Image" data-name="Layer 2 Image"><path class="cls-6" d="M84.25,5.29a78.5,78.5,0,1,1-78.5,78.5,78.59,78.59,0,0,1,78.5-78.5m0-5a83.5,83.5,0,1,0,83.5,83.5A83.5,83.5,0,0,0,84.25.29Z"/></g><g id="Layer_6" data-name="Layer 6"><path class="cls-7" d="M1.37,117.67l.86-.52c.83-.5,81.78-49.5,99.71-58.61-11.47-22-10.39-36.77,3.22-44L108,13c6.29-3.57,18-10.22,24.07-11.66l.72-.17L136.88,8,114.21,19.71l0,0c-.07,0-7.42,3-10,9.91-1.7,4.59-1,9.93,2.18,15.87.12.26,10.52,22.09,17.93,28.21.24.17.6.47,1,.82,2.15,1.78,5.74,4.76,11.69,4.76,4.8,0,10.24-2,16.15-5.91l15.52-10.86,3.6,6.53-.63.53c-.65.54-16,13.29-21.08,15.49l-.57.32a25.55,25.55,0,0,1-12.88,3.75c-10.66,0-20.9-7.39-30.45-22-11.12,6.67-91.5,53.72-100.19,57.26l-.79.32Z"/><path class="cls-8" d="M132.31,2.29l3.17,5.34L113.8,18.79S95,26.13,105.46,46c0,0,10.5,22.18,18.17,28.51,1.8,1.27,5.86,5.8,13.35,5.8,4.34,0,9.83-1.52,16.7-6.07L168.32,64,171,68.82S155.15,82,150.15,84.16c-1.6.84-6.35,4-13.05,4-7.95,0-18.65-4.42-30.13-22.32-6,3.67-91.87,54-100.88,57.69L2.75,118S87.29,66.82,103.29,59c-3-5.84-18.17-32.68,2.33-43.52C110.46,12.79,125.3,4,132.31,2.29m1-2.29-1.43.34c-6.21,1.48-17.56,7.92-24.34,11.76l-2.84,1.6c-9,4.77-12.91,13.28-11.18,24.59,1.23,8.09,5,15.83,7.1,19.82C81.11,68.24,5,114.27,1.71,116.29l-1.71,1L1,119l3.33,5.5L5.26,126l1.58-.64c8.8-3.58,86.6-49.19,99.5-56.84,9.6,14.35,19.94,21.62,30.76,21.62a26.85,26.85,0,0,0,13.37-3.88L151,86c5.18-2.3,19.62-14.24,21.25-15.6l1.27-1.06-.8-1.45L170.07,63,169,61.07l-1.82,1.27L152.54,72.58c-5.71,3.78-11,5.71-15.56,5.71-5.59,0-9-2.83-11-4.53-.4-.33-.76-.63-1.08-.86-7.24-6-17.49-27.57-17.59-27.78l0,0,0,0c-3-5.67-3.72-10.73-2.13-15,2.4-6.5,9.36-9.31,9.43-9.34l.09,0,.09,0L136.39,9.4l1.89-1L137.19,6.6,134,1.27,133.27,0Z"/></g></svg>