<svg xmlns="http://www.w3.org/2000/svg" viewBox="0 0 445 251"><defs><style>.cls-1{fill:#fff;}.cls-2{fill:#f7403c;}</style></defs><title>mcore</title><g id="Layer_4" data-name="Layer 4"><rect class="cls-1" width="445" height="251"/></g><g id="Audiophile_Image" data-name="Audiophile Image"><path class="cls-2" d="M184.56,227.08c-.24-4.51-.53-9.94-.48-14h-.14c-1.1,3.79-2.45,7.83-4.08,12.29l-5.71,15.7H171l-5.23-15.41c-1.54-4.56-2.83-8.74-3.74-12.58h-.1c-.1,4-.34,9.46-.62,14.31l-.86,13.87h-4l2.26-32.35H164l5.52,15.65c1.34,4,2.45,7.54,3.26,10.9h.14c.82-3.26,2-6.82,3.41-10.9l5.76-15.65h5.33l2,32.35h-4.08Z"/><path class="cls-2" d="M205.82,226.74v3.12H194v-3.12Z"/><path class="cls-2" d="M234.18,240.23a20.74,20.74,0,0,1-8.54,1.54c-9.12,0-16-5.76-16-16.37,0-10.13,6.86-17,16.9-17a17.34,17.34,0,0,1,7.68,1.44l-1,3.41a15.2,15.2,0,0,0-6.53-1.34c-7.58,0-12.62,4.85-12.62,13.35,0,7.92,4.56,13,12.43,13a16.73,16.73,0,0,0,6.82-1.34Z"/><path class="cls-2" d="M259.77,229.48c0,8.59-6,12.34-11.57,12.34-6.29,0-11.14-4.61-11.14-12,0-7.78,5.09-12.34,11.52-12.34C255.26,217.52,259.77,222.37,259.77,229.48Zm-18.43.24c0,5.09,2.93,8.93,7.06,8.93s7.06-3.79,7.06-9c0-3.94-2-8.93-7-8.93S241.34,225.3,241.34,229.72Z"/><path class="cls-2" d="M265.1,225.3c0-2.74,0-5.09-.19-7.25h3.7l.14,4.56h.19a7,7,0,0,1,6.43-5.09,4.58,4.58,0,0,1,1.2.14v4a6.36,6.36,0,0,0-1.44-.14c-3,0-5.09,2.26-5.67,5.42a11.93,11.93,0,0,0-.19,2v12.38H265.1Z"/><path class="cls-2" d="M282.66,230.44c.1,5.71,3.74,8.06,8,8.06a15.28,15.28,0,0,0,6.43-1.2l.72,3a18.83,18.83,0,0,1-7.73,1.44c-7.15,0-11.42-4.71-11.42-11.71s4.13-12.53,10.9-12.53c7.58,0,9.6,6.67,9.6,10.94a15.77,15.77,0,0,1-.14,2Zm12.39-3c0-2.69-1.1-6.86-5.86-6.86-4.27,0-6.14,3.94-6.48,6.86Z"/></g><g id="Layer_2_Image" data-name="Layer 2 Image"><path class="cls-2" d="M222.68,47a78.5,78.5,0,1,1-78.5,78.5A78.59,78.59,0,0,1,222.68,47m0-5a83.5,83.5,0,1,0,83.5,83.5A83.5,83.5,0,0,0,222.68,42Z"/></g><g id="Layer_6" data-name="Layer 6"><path class="cls-2" d="M139.81,159.38l.86-.52c.83-.5,81.78-49.5,99.71-58.61-11.47-22-10.39-36.77,3.22-44l2.84-1.6c6.29-3.57,18-10.22,24.07-11.66l.72-.17,4.09,6.88L252.64,61.42l0,0c-.07,0-7.42,3-10,9.91-1.7,4.59-1,9.93,2.18,15.87.12.26,10.52,22.09,17.93,28.21.24.17.6.47,1,.82,2.15,1.78,5.74,4.76,11.69,4.76,4.8,0,10.24-2,16.15-5.91l15.52-10.86,3.6,6.53-.63.53c-.65.54-16,13.29-21.08,15.49l-.57.32a25.55,25.55,0,0,1-12.88,3.75c-10.66,0-20.9-7.39-30.45-22-11.12,6.67-91.5,53.72-100.19,57.26l-.79.32Z"/><path class="cls-1" d="M270.74,44l3.17,5.34L252.23,60.51s-18.84,7.34-8.34,27.18c0,0,10.5,22.18,18.17,28.51,1.8,1.27,5.86,5.8,13.35,5.8,4.34,0,9.83-1.52,16.7-6.07l14.63-10.23,2.67,4.84s-15.84,13.17-20.84,15.34c-1.6.84-6.35,4-13.05,4-7.95,0-18.65-4.42-30.13-22.32-6,3.67-91.87,54-100.88,57.69l-3.33-5.5s84.54-51.19,100.55-59c-3-5.84-18.17-32.68,2.33-43.52,4.84-2.67,19.68-11.51,26.68-13.17m1-2.29-1.43.34c-6.21,1.48-17.56,7.92-24.34,11.76l-2.84,1.6c-9,4.77-12.91,13.28-11.18,24.59,1.23,8.09,5,15.83,7.1,19.82C219.54,110,143.48,156,140.14,158l-1.71,1,1,1.71,3.33,5.5.88,1.46,1.58-.64c8.8-3.58,86.6-49.19,99.5-56.84,9.6,14.35,19.94,21.62,30.76,21.62A26.85,26.85,0,0,0,288.9,128l.55-.31c5.18-2.3,19.62-14.24,21.25-15.6L312,111l-.8-1.45-2.67-4.84-1.07-1.95-1.82,1.27L291,114.29c-5.71,3.78-11,5.71-15.56,5.71-5.59,0-9-2.83-11-4.53-.4-.33-.76-.63-1.08-.86-7.24-6-17.49-27.57-17.59-27.78l0,0,0,0c-3-5.67-3.72-10.73-2.13-15,2.4-6.5,9.36-9.31,9.43-9.34l.09,0,.09,0,21.68-11.17,1.89-1-1.08-1.83L272.46,43l-.75-1.27Z"/></g></svg>