<?xml version="1.0" encoding="utf-8"?>
<!-- Generator: Adobe Illustrator 19.0.0, SVG Export Plug-In . SVG Version: 6.00 Build 0)  -->
<svg version="1.1" xmlns="http://www.w3.org/2000/svg" xmlns:xlink="http://www.w3.org/1999/xlink" x="0px" y="0px"
	 viewBox="0 0 172.8 213" style="enable-background:new 0 0 172.8 213;" xml:space="preserve">
<style type="text/css">
	.st0{fill:#F7403C;}
	.st1{fill:#EF433F;}
	.st2{fill:#FFFFFF;}
</style>
<g id="Audiophile_xA0_Image_3_">
	<g>
		<path class="st0" d="M0,171c2-0.3,4.7-0.6,8-0.6c4.1,0,7.2,1,9.1,2.7c1.8,1.5,2.8,3.9,2.8,6.8c0,2.9-0.9,5.2-2.5,6.9
			c-2.2,2.4-5.8,3.6-9.9,3.6c-1.2,0-2.4,0-3.4-0.3v13H0V171z M4.2,186.6c0.9,0.2,2.1,0.3,3.5,0.3c5,0,8.1-2.4,8.1-6.9
			c0-4.3-3-6.3-7.6-6.3c-1.8,0-3.2,0.1-3.9,0.3V186.6z"/>
		<path class="st0" d="M24.6,187c0-2.7,0-5.1-0.2-7.2h3.7l0.1,4.6h0.2c1.1-3.1,3.6-5.1,6.4-5.1c0.5,0,0.8,0,1.2,0.1v4
			c-0.4-0.1-0.9-0.1-1.4-0.1c-3,0-5.1,2.3-5.7,5.4c-0.1,0.6-0.2,1.2-0.2,2V203h-4.2V187z"/>
		<path class="st0" d="M60.9,191.2c0,8.6-6,12.3-11.6,12.3c-6.3,0-11.1-4.6-11.1-12c0-7.8,5.1-12.3,11.5-12.3
			C56.4,179.2,60.9,184.1,60.9,191.2z M42.4,191.4c0,5.1,2.9,8.9,7.1,8.9c4,0,7.1-3.8,7.1-9c0-3.9-2-8.9-7-8.9
			C44.6,182.4,42.4,187,42.4,191.4z"/>
		<path class="st0" d="M60.5,209.7c1.9-0.1,3.6-0.7,4.6-1.8c1.2-1.3,1.6-3.2,1.6-8.7v-19.4h4.2v21.1c0,4.5-0.7,7.4-2.8,9.6
			c-1.9,1.9-4.9,2.6-7.2,2.6L60.5,209.7z M71.4,173.2c0,1.4-1,2.6-2.6,2.6c-1.6,0-2.6-1.2-2.6-2.6c0-1.5,1.1-2.6,2.7-2.6
			C70.4,170.6,71.4,171.7,71.4,173.2z"/>
		<path class="st0" d="M80.2,192.2c0.1,5.7,3.7,8.1,8,8.1c3,0,4.8-0.5,6.4-1.2l0.7,3c-1.5,0.7-4,1.4-7.7,1.4
			c-7.2,0-11.4-4.7-11.4-11.7c0-7,4.1-12.5,10.9-12.5c7.6,0,9.6,6.7,9.6,10.9c0,0.9-0.1,1.5-0.1,2H80.2z M92.6,189.1
			c0-2.7-1.1-6.9-5.9-6.9c-4.3,0-6.1,3.9-6.5,6.9H92.6z"/>
		<path class="st0" d="M118.5,202.1c-1.1,0.6-3.6,1.3-6.7,1.3c-7,0-11.6-4.8-11.6-11.9c0-7.2,4.9-12.3,12.5-12.3
			c2.5,0,4.7,0.6,5.9,1.2l-1,3.3c-1-0.6-2.6-1.1-4.9-1.1c-5.3,0-8.2,3.9-8.2,8.8c0,5.4,3.5,8.7,8.1,8.7c2.4,0,4-0.6,5.2-1.2
			L118.5,202.1z"/>
		<path class="st0" d="M129.1,173.1v6.7h6v3.2h-6v12.5c0,2.9,0.8,4.5,3.2,4.5c1.1,0,1.9-0.1,2.4-0.3l0.2,3.2
			c-0.8,0.3-2.1,0.6-3.7,0.6c-2,0-3.6-0.6-4.6-1.8c-1.2-1.2-1.6-3.3-1.6-6V183h-3.6v-3.2h3.6v-5.6L129.1,173.1z"/>
		<path class="st0" d="M168,203l-4.1-7.2c-1.7-2.7-2.7-4.5-3.7-6.4H160c-0.9,1.9-1.8,3.6-3.5,6.4l-3.9,7.1h-4.8l9.9-16.4l-9.5-16
			h4.8l4.3,7.6c1.2,2.1,2.1,3.7,3,5.5h0.1c0.9-1.9,1.7-3.4,2.9-5.5l4.4-7.6h4.8l-9.8,15.7l10.1,16.6H168z"/>
	</g>
</g>
<g id="Layer_2_xA0_Image_1_">
	<g>
		<path class="st1" d="M85.2,9c43.3,0,78.5,35.2,78.5,78.5S128.5,166,85.2,166S6.7,130.8,6.7,87.5S41.9,9,85.2,9 M85.2,4
			C39.1,4,1.7,41.4,1.7,87.5S39.1,171,85.2,171s83.5-37.4,83.5-83.5S131.3,4,85.2,4L85.2,4z"/>
	</g>
</g>
<g id="Layer_4">
	<g>
		<g>
			<polygon class="st0" points="125.9,157 86.3,102 46.5,157 16.2,157 70.9,79.2 15.9,1 46.3,1 86.3,56.3 126.1,1 156.4,1 
				101.4,79.2 156.2,157 			"/>
			<path class="st2" d="M154.5,2l-54.3,77.2l54.1,76.8h-27.9l-40.1-55.7L46,156H18.1l54.1-76.8L17.8,2h27.9l40.6,56l40.3-56H154.5
				 M158.4,0h-3.9h-27.9h-1L125,0.8L86.3,54.6L47.4,0.8L46.8,0h-1H17.8H14l2.2,3.2l53.5,76l-53.3,75.7l-2.2,3.2h3.9H46h1l0.6-0.8
				l38.7-53.4l38.4,53.4l0.6,0.8h1h27.9h3.9l-2.2-3.2l-53.3-75.7l53.5-76L158.4,0L158.4,0z"/>
		</g>
	</g>
</g>
</svg>
