<svg xmlns="http://www.w3.org/2000/svg" viewBox="0 0 445 251"><defs><style>.cls-1{fill:#fff;}.cls-2{font-size:48px;font-family:MyriadPro-Regular, Myriad Pro;}.cls-2,.cls-7{fill:#f7403c;}.cls-3{letter-spacing:-0.02em;}.cls-4{letter-spacing:-0.01em;}.cls-5{letter-spacing:0em;}.cls-6{letter-spacing:0.01em;}</style></defs><title>projectx</title><g id="Layer_5" data-name="Layer 5"><rect class="cls-1" width="445" height="251"/></g><g id="Audiophile_Image" data-name="Audiophile Image"><text class="cls-2" transform="translate(133.68 241)"><tspan class="cls-3">P</tspan><tspan class="cls-4" x="24.77" y="0">r</tspan><tspan class="cls-5" x="39.98" y="0">oje</tspan><tspan class="cls-6" x="102.05" y="0">c</tspan><tspan x="124.17" y="0">t X</tspan></text></g><g id="Layer_2_Image" data-name="Layer 2 Image"><path class="cls-7" d="M222.5,47A78.5,78.5,0,1,1,144,125.5,78.59,78.59,0,0,1,222.5,47m0-5A83.5,83.5,0,1,0,306,125.5,83.5,83.5,0,0,0,222.5,42Z"/></g><g id="Layer_4" data-name="Layer 4"><polygon class="cls-7" points="263.18 194.68 223.62 140.35 183.82 194.68 153.47 194.68 208.26 117.77 153.22 40.5 183.57 40.5 223.62 95.19 263.43 40.5 293.77 40.5 238.74 117.77 293.53 194.68 263.18 194.68"/><path class="cls-1" d="M291.84,41.5l-54.32,76.27,54.08,75.91h-27.9l-40.07-55-40.31,55h-27.9l54.08-75.91L155.16,41.5h27.9l40.56,55.38L263.94,41.5h27.9m3.88-2h-32.8l-.6.82-38.7,53.17L184.68,40.32l-.6-.82H151.28l2.25,3.16L207,117.77l-53.25,74.75-2.25,3.16h32.79l.6-.82,38.69-52.81,38.46,52.8.6.82h32.8l-2.25-3.16L240,117.77l53.5-75.11,2.25-3.16Z"/></g></svg>