<svg xmlns="http://www.w3.org/2000/svg" viewBox="0 0 341.28 219.7"><defs><style>.cls-1{font-size:48px;font-family:MyriadPro-Regular, Myriad Pro;}.cls-1,.cls-6{fill:#f7403c;}.cls-2{letter-spacing:0em;}.cls-3{letter-spacing:0em;}.cls-4{letter-spacing:0em;}.cls-5{fill:none;stroke:#f7403c;stroke-miterlimit:10;stroke-width:5px;}</style></defs><title>sass</title><g id="Audiophile_Image" data-name="Audiophile Image"><text class="cls-1" transform="translate(0 207.7)">SASS Expe<tspan class="cls-2" x="207.74" y="0">r</tspan><tspan class="cls-3" x="223.63" y="0">ime</tspan><tspan class="cls-4" x="298.94" y="0">n</tspan><tspan x="325.39" y="0">t</tspan></text></g><g id="Layer_3" data-name="Layer 3"><path class="cls-5" d="M98.46,118.32a80.22,80.22,0,0,1-7.83-29.5"/><path class="cls-5" d="M110.13,136a81,81,0,0,1-6-7.81"/><path class="cls-5" d="M248.55,106.08a80.72,80.72,0,0,1-129.72,38.57"/><path class="cls-5" d="M104.24,38A80.73,80.73,0,0,1,250.83,96"/><path class="cls-6" d="M207.05,116.44c-.55-.39-.46-1.66,1.35-5.6a21.14,21.14,0,0,1,5.15-6.64,9.57,9.57,0,0,1,.52,2.92c0,6.1-4.39,8.38-7,9.32Zm-23.17,5.28c-.74.39-1.41.63-1.73.44s.3-.65.3-.65,3.76-4,5.24-5.89c.86-1.07,1.86-2.34,2.95-3.77q0,.21,0,.42c0,4.85-4.69,8.12-6.78,9.44Zm-30.07-14.35c-1.74,4.24-5.38,15.1-7.6,14.51-1.9-.5-3.06-8.75-.38-16.87a37.62,37.62,0,0,1,5.93-10.87c2.73-3.05,5.73-4,6.46-2.81.93,1.58-3.32,13.37-4.41,16Zm-36.4,24.74c-5,5.45-12,7.51-15,5.78-3.23-1.87-2-9.9,4.18-15.68a79.37,79.37,0,0,1,11.76-8.77l3.1-1.86.34-.19h0l.77-.46a21.67,21.67,0,0,1-5.18,21.2Zm116.26-39.2A35.66,35.66,0,0,0,218,96.57c-1.61-3.21-3.24-6-3.51-8.14a21.63,21.63,0,0,1-.3-6.84c.39-2.92,2.08-7.06,2.05-7.37s-.38-1.8-3.88-1.82-6.49.67-6.84,1.6A34.54,34.54,0,0,0,204,79.16c-.61,3.17-7,14.48-10.6,20.39a21.23,21.23,0,0,1-2.4-6,21.64,21.64,0,0,1-.3-6.84c.39-2.92,2.08-7.06,2.05-7.37s-.38-1.8-3.88-1.82-6.49.67-6.84,1.6-.73,3.08-1.44,5.17-9.18,20.95-11.4,25.84c-1.13,2.49-2.11,4.49-2.81,5.86h0l-.12.24c-.59,1.16-.95,1.81-.95,1.81v0c-.47.85-1,1.65-1.23,1.65s-.52-2.27.08-5.4c1.26-6.54,4.29-16.75,4.26-17.1,0-.18.56-2-2-2.89a3.15,3.15,0,0,0-3.57.61c-.22,0-.38.53-.38.53S165.3,84,157.31,84c-5,0-11.92,5.47-15.33,10.42-2.15,1.17-6.76,3.69-11.64,6.37l-5.61,3.09-.37-.41c-9.69-10.34-27.61-17.65-26.84-31.55.28-5.05,2-18.36,34.42-34.5,26.53-13.22,47.77-9.58,51.44-1.52,5.24,11.52-11.35,32.93-38.91,36-10.5,1.18-16-2.89-17.4-4.41s-1.66-1.67-2.2-1.37c-.88.49-.32,1.9,0,2.74.82,2.14,4.2,5.94,10,7.83,5.06,1.66,17.39,2.57,32.29-3.19,16.7-6.46,29.73-24.42,25.9-39.44-3.89-15.27-29.22-20.29-53.18-11.78-14.26,5.07-29.7,13-40.81,23.4C85.83,58.08,83.72,68.82,84.59,73.31c3.08,16,25.07,26.34,33.88,34l-1.21.67c-4.41,2.18-21.18,11-25.37,20.23-4.76,10.51.76,18.06,4.41,19.07,11.31,3.15,22.91-2.51,29.15-11.82s5.47-21.41,2.61-26.94l-.11-.2,3.45-2c2.25-1.32,4.45-2.55,6.37-3.59a42.81,42.81,0,0,0-2.26,11.53c-.48,6,2,13.68,5.17,16.72a5.67,5.67,0,0,0,4.18,1.37c3.72,0,5.42-3.1,7.29-6.76,2.3-4.49,4.33-9.73,4.33-9.73S153.92,130,160.88,130c2.54,0,5.09-3.29,6.23-5v0l.2-.33c.26-.4.41-.66.41-.66V124c1-1.77,3.28-5.81,6.67-12.47,4.38-8.6,8.59-19.38,8.59-19.38a57.58,57.58,0,0,0,1.67,7,65.36,65.36,0,0,0,3.62,8.11c-1,1.41-1.64,2.22-1.64,2.22l0,0c-.81,1.08-1.72,2.24-2.68,3.38-3.46,4.12-7.58,8.82-8.13,10.18-.65,1.6-.5,2.78.76,3.72.92.69,2.55.8,4.26.68a19.4,19.4,0,0,0,6.37-1.45,21.45,21.45,0,0,0,5.48-2.88A12.19,12.19,0,0,0,198,112.37a21.88,21.88,0,0,0-2-7.62l.93-1.34A144.84,144.84,0,0,0,206.4,87a57.57,57.57,0,0,0,1.67,7,48.78,48.78,0,0,0,3.08,7c-5,4.09-8.15,8.84-9.23,12-2,5.76-.43,8.37,2.51,9a9.06,9.06,0,0,0,4.63-.94,21.46,21.46,0,0,0,5.86-3c3.39-2.49,6.66-6,6.46-10.71a20.11,20.11,0,0,0-1.47-6.34,33.13,33.13,0,0,1,16.81-1.94c15.08,1.76,18,11.18,17.48,15.12a10,10,0,0,1-4.79,6.76c-1.06.65-1.38.88-1.29,1.37.13.71.62.68,1.52.53,1.24-.21,7.92-3.21,8.21-10.48.36-9.24-8.49-19.38-24.16-19.3Z"/></g></svg>