<svg xmlns="http://www.w3.org/2000/svg" viewBox="0 0 445 251"><defs><style>.cls-1{font-size:48px;font-family:MyriadPro-Regular, Myriad Pro;}.cls-1,.cls-5{fill:#f7403c;}.cls-2{letter-spacing:0em;}.cls-3{letter-spacing:0em;}.cls-4{letter-spacing:0em;}.cls-6{fill:#fff;}</style></defs><title>sass</title><g id="Audiophile_Image" data-name="Audiophile Image"><text class="cls-1" transform="translate(51.86 240.99)">SASS Expe<tspan class="cls-2" x="207.74" y="0">r</tspan><tspan class="cls-3" x="223.63" y="0">ime</tspan><tspan class="cls-4" x="298.94" y="0">n</tspan><tspan x="325.39" y="0">t</tspan></text></g><g id="Layer_3" data-name="Layer 3"><path class="cls-5" d="M223,47a78.5,78.5,0,1,1-78.5,78.5A78.59,78.59,0,0,1,223,47m0-5a83.5,83.5,0,1,0,83.5,83.5A83.5,83.5,0,0,0,223,42Z"/><path class="cls-5" d="M154.57,191.5a25,25,0,0,1-6.68-.91c-2.12-.59-4.26-2.71-5.58-5.53-1.18-2.52-2.68-7.82.53-14.92,4.26-9.41,20.63-18.12,25.73-20.66-2.1-1.69-4.79-3.54-7.61-5.49-10.3-7.09-23.11-15.92-25.48-28.19-.89-4.63,1.2-15.84,14.74-28.5s31.58-20.21,41.15-23.62a71.19,71.19,0,0,1,23.52-4.18c16.48,0,28.35,6.38,31,16.66,3.75,14.72-8.63,33.7-26.51,40.62a63.78,63.78,0,0,1-22.84,4.52A33,33,0,0,1,186.37,120c-6.16-2-9.7-6.14-10.58-8.42-.39-1-1.18-3.07.45-4a1.8,1.8,0,0,1,.9-.26c.83,0,1.44.63,2.53,1.83.16.17,4,4.29,13,4.29a32,32,0,0,0,3.55-.21c19.06-2.14,31.44-12.79,36.24-21.26,2.84-5,3.5-9.75,1.86-13.35-1.84-4-8.75-6.66-17.6-6.66-6.9,0-18.13,1.5-32.49,8.66C162.39,91.53,151,102.85,150.37,114.3c-.5,9.08,7.48,15.22,15.92,21.71A91,91,0,0,1,176.8,145l4.92-2.71c4.74-2.6,9.21-5,11.44-6.26,3.64-5.16,10.72-10.66,16-10.66a6,6,0,0,1,5,2.21c1.77,2.24,1.82,5.67,1.6,8a3.72,3.72,0,0,1,1.12-.17,5.3,5.3,0,0,1,1.81.35c1.95.71,2.88,2.08,2.63,3.85h0a24.83,24.83,0,0,1-.83,3.32c-1,3.59-2.61,9.59-3.44,13.94a17.85,17.85,0,0,0-.29,2.25l.51-1,1-2.08,0,.05c.54-1.11,1.19-2.47,1.9-4,2.5-5.52,10.68-23.75,11.36-25.75.39-1.12.68-2.31.91-3.25a18.74,18.74,0,0,1,.54-1.95c.81-2.13,6.46-2.24,7.59-2.24h.19c4.43,0,4.83,2.29,4.87,2.74a4.7,4.7,0,0,1-.45,1.68,35,35,0,0,0-1.61,5.9,17,17,0,0,0,.14,5.41c.05.37.11.75.16,1.17a14.43,14.43,0,0,0,1.49,4c4-6.61,9-15.92,9.54-18.52a35.53,35.53,0,0,1,1.49-5.33c.81-2.13,6.46-2.24,7.59-2.24h.19c4.43,0,4.83,2.29,4.87,2.75a4.69,4.69,0,0,1-.45,1.68A35,35,0,0,0,267,124a17,17,0,0,0,.14,5.41c.05.37.11.75.16,1.17.2,1.55,1.29,3.66,2.54,6.1l.43.84a36.71,36.71,0,0,1,15.26-3.33h.2c8.06,0,15.07,2.68,19.75,7.55a17.77,17.77,0,0,1,5.22,12.79c-.3,7.58-7.13,11.11-9,11.43a5.78,5.78,0,0,1-.94.1h0a1.64,1.64,0,0,1-1.73-1.44c-.22-1.18.65-1.72,1.75-2.4a8.88,8.88,0,0,0,4.32-6.05,10.24,10.24,0,0,0-2.33-7.2c-2-2.57-6.05-5.82-14.27-6.78a41.33,41.33,0,0,0-4.76-.29A30.4,30.4,0,0,0,273,143.73a19.89,19.89,0,0,1,1.19,5.73c.18,4.25-2.07,8-6.87,11.56a22.43,22.43,0,0,1-6.13,3.15,11.35,11.35,0,0,1-4.24,1.06,4.65,4.65,0,0,1-.91-.08,5,5,0,0,1-3.48-2.37c-1-1.83-1-4.49.22-7.91,1-3,3.93-7.65,8.93-11.89l-.23-.46a39.08,39.08,0,0,1-2.56-6c-.5-1.69-.86-3.12-1.12-4.25a142.68,142.68,0,0,1-8.26,14l-.62.9a21.75,21.75,0,0,1,1.85,7.46,13.22,13.22,0,0,1-5.65,11.64,22.47,22.47,0,0,1-5.74,3,20.34,20.34,0,0,1-6.64,1.51c-.4,0-.79,0-1.17,0a6.18,6.18,0,0,1-3.76-.92c-1.58-1.19-1.94-2.79-1.08-4.9.48-1.17,2.72-3.86,6.35-8.15l1.94-2.3c.73-.87,1.5-1.84,2.29-2.87h0l.34-.51s.48-.63,1.28-1.72c-.28-.59-.57-1.18-.86-1.77a39.32,39.32,0,0,1-2.56-6c-.44-1.49-.77-2.77-1-3.83-1.58,3.85-4.45,10.63-7.38,16.38-3.28,6.44-5.52,10.46-6.61,12.36l-.1.23s-.16.27-.44.7l-1.51,2.51-.07-.37c-1.48,1.76-3.52,3.58-5.68,3.58a4.79,4.79,0,0,1-3.85-1.76c-1.49-1.78-2-4.7-2-7.37-.61,1.35-1.29,2.8-2,4.18-1.75,3.42-3.73,7.31-8.19,7.31a6.69,6.69,0,0,1-4.87-1.64c-3.47-3.29-6-11.31-5.48-17.52a49.45,49.45,0,0,1,1.54-9.36c-1.45.81-2.83,1.6-4.14,2.37l-2.65,1.56c2.59,5.75,3.37,17.84-3,27.31C172.71,186.47,163.67,191.5,154.57,191.5Zm16.2-34.91a78,78,0,0,0-11.59,8.64c-4.28,4-5.87,9-5.54,11.81a3,3,0,0,0,1.18,2.28,4.35,4.35,0,0,0,2.14.46c3,0,7.76-1.87,11.59-6.05a20.62,20.62,0,0,0,5.26-19ZM209,134.12c-.94,0-2.78.94-4.62,3a36.61,36.61,0,0,0-5.72,10.51c-2.54,7.71-1.35,14.71-.34,15.56,1.33-.62,4.14-8,5.36-11.11.41-1.07.78-2,1.09-2.79,1.72-4.19,4.82-13.6,4.45-15.17H209Zm30.68,25.24-.72.83Q239.34,159.78,239.67,159.36Zm25.18-11a19.25,19.25,0,0,0-3.68,5.15,22.9,22.9,0,0,0-1.46,3.78,8.25,8.25,0,0,0,5.22-7.92A6.34,6.34,0,0,0,264.85,148.41Z"/><path class="cls-6" d="M214.88,60.5c15.07,0,27.38,5.63,30,15.9,3.83,15-9.21,33-25.9,39.44a62.93,62.93,0,0,1-22.48,4.45,33,33,0,0,1-9.81-1.26c-5.76-1.89-9.13-5.69-10-7.83-.32-.84-.88-2.25,0-2.74a.86.86,0,0,1,.41-.14c.35,0,.75.36,1.79,1.51,1.21,1.33,5.6,4.62,13.74,4.62a32.9,32.9,0,0,0,3.66-.21c27.55-3.09,44.15-24.5,38.91-36C233.31,74,226.55,71,216.73,71c-8.9,0-20.32,2.47-32.94,8.76-32.39,16.14-34.15,29.44-34.42,34.5-.76,13.9,17.15,21.21,26.84,31.55l.37.41,5.61-3.09c4.89-2.68,9.49-5.2,11.64-6.37,3.41-5,10.33-10.42,15.33-10.42,8,0,5.24,11.47,5.24,11.47s.16-.53.38-.53a3.32,3.32,0,0,1,2.11-.9,4.27,4.27,0,0,1,1.46.29c2.54.93,2,2.71,2,2.89,0,.35-3,10.55-4.26,17.1-.6,3.12-.25,5.4-.08,5.4s.76-.79,1.23-1.65v0s.35-.64.95-1.81l.12-.24h0C219,157,220,155,221.1,152.47c2.22-4.89,10.68-23.75,11.4-25.84s1.09-4.24,1.44-5.17,3.24-1.6,6.66-1.6h.18c3.5,0,3.85,1.51,3.88,1.82s-1.67,4.45-2.05,7.37a21.64,21.64,0,0,0,.3,6.84,21.23,21.23,0,0,0,2.4,6c3.62-5.91,10-17.22,10.6-20.39a34.54,34.54,0,0,1,1.44-5.17c.35-.91,3.24-1.6,6.66-1.6h.18c3.5,0,3.85,1.51,3.88,1.82S266.4,121,266,123.9a21.63,21.63,0,0,0,.3,6.84c.27,2.1,1.9,4.93,3.51,8.14a35.66,35.66,0,0,1,15.71-3.66h.19c15.56,0,24.33,10.1,24,19.3-.29,7.28-7,10.27-8.21,10.48a4.92,4.92,0,0,1-.77.09.65.65,0,0,1-.75-.62c-.09-.49.23-.71,1.29-1.37a10,10,0,0,0,4.79-6.76c.57-3.94-2.39-13.36-17.48-15.12a42,42,0,0,0-4.88-.29,30.76,30.76,0,0,0-11.94,2.24,20.11,20.11,0,0,1,1.47,6.34c.2,4.73-3.07,8.22-6.46,10.71a21.46,21.46,0,0,1-5.86,3,11,11,0,0,1-3.92,1,3.59,3.59,0,0,1-.71-.07c-2.94-.59-4.51-3.21-2.51-9,1.08-3.12,4.2-7.86,9.23-12a48.78,48.78,0,0,1-3.08-7,57.57,57.57,0,0,1-1.67-7,144.84,144.84,0,0,1-9.5,16.41l-.93,1.34a21.88,21.88,0,0,1,2,7.62,12.19,12.19,0,0,1-5.24,10.79,21.45,21.45,0,0,1-5.48,2.88,19.4,19.4,0,0,1-6.37,1.45c-.37,0-.74,0-1.1,0a5.41,5.41,0,0,1-3.15-.72c-1.26-.95-1.41-2.12-.76-3.72.55-1.36,4.67-6.06,8.13-10.18,1-1.13,1.86-2.3,2.68-3.38l0,0s.63-.81,1.64-2.22a65.35,65.35,0,0,1-3.62-8.11,57.58,57.58,0,0,1-1.67-7s-4.2,10.78-8.59,19.38c-3.39,6.66-5.65,10.69-6.67,12.47v.07s-.15.26-.41.66l-.2.33v0c-1.14,1.68-3.69,5-6.23,5-7,0-4.41-14.13-4.41-14.13s-2,5.23-4.33,9.73c-1.87,3.66-3.57,6.76-7.29,6.76a5.67,5.67,0,0,1-4.18-1.37c-3.2-3-5.65-10.75-5.17-16.72A42.81,42.81,0,0,1,189.63,145c-1.91,1-4.12,2.27-6.37,3.59l-3.45,2,.11.2c2.86,5.53,3.62,17.64-2.61,26.94-5.06,7.54-13.64,12.69-22.74,12.69a23.87,23.87,0,0,1-6.41-.88c-3.65-1-9.16-8.56-4.41-19.07,4.19-9.27,21-18,25.37-20.23l1.21-.67c-8.81-7.7-30.8-18.09-33.88-34-.87-4.49,1.24-15.24,14.44-27.58,11.1-10.38,26.54-18.34,40.81-23.4a70,70,0,0,1,23.19-4.13M198.25,164.21c2.23,0,5.73-10.4,7.42-14.54,1.09-2.66,5.34-14.46,4.41-16a1.18,1.18,0,0,0-1.09-.52c-1.3,0-3.4,1.13-5.37,3.33a37.62,37.62,0,0,0-5.93,10.87c-2.68,8.12-1.52,16.37.38,16.87l.18,0m60.66-5.47c2.63-.95,7-3.22,7-9.32a9.57,9.57,0,0,0-.52-2.92,21.14,21.14,0,0,0-5.15,6.64c-1.81,3.94-1.9,5.21-1.35,5.6M157,180.79c3.47,0,8.48-2.19,12.32-6.38a21.67,21.67,0,0,0,5.18-21.2l-.77.46h0l-.34.19-3.1,1.86a79.37,79.37,0,0,0-11.76,8.77c-6.13,5.78-7.41,13.81-4.18,15.68a5.28,5.28,0,0,0,2.65.6m77.34-16.27a3.69,3.69,0,0,0,1.45-.51c2.09-1.32,6.77-4.59,6.78-9.44q0-.21,0-.42c-1.09,1.42-2.09,2.69-2.95,3.77-1.48,1.84-5.24,5.89-5.24,5.89s-.53.51-.3.65a.54.54,0,0,0,.28.06m-19.42-106v0A72.18,72.18,0,0,0,191,62.74c-9.65,3.43-27.88,11.08-41.5,23.83-13,12.12-16.19,23.42-15,29.42,2.45,12.68,15.45,21.63,25.9,28.83,2.28,1.57,4.47,3.08,6.32,4.49-6.29,3.25-20.74,11.47-24.78,20.42-3.38,7.46-1.78,13.07-.53,15.75,1.44,3.08,3.82,5.4,6.22,6.07a25.91,25.91,0,0,0,6.95.95c9.44,0,18.79-5.2,24.4-13.58,6.35-9.47,5.88-21.11,3.41-27.45l1.9-1.12,2.11-1.22a56.08,56.08,0,0,0-1,7.28c-.52,6.47,2.13,14.86,5.78,18.33a7.59,7.59,0,0,0,5.56,1.92c5.07,0,7.29-4.35,9.08-7.85l.47-.94a9.7,9.7,0,0,0,1.87,4.32,5.82,5.82,0,0,0,4.61,2.12,7.57,7.57,0,0,0,5-2.37l.17,1,2.78-4.55.18-.31c.28-.43.44-.71.44-.71l.17-.29,0-.08c1.12-2,3.33-5.94,6.55-12.26,2.33-4.58,4.63-9.81,6.28-13.71l.28,1a40,40,0,0,0,2.62,6.12l.6,1.22c-.57.77-.9,1.21-.91,1.21l-.7.91,0,0c-.66.86-1.31,1.66-1.93,2.4l-1.95,2.31c-4.13,4.87-6,7.14-6.5,8.41-1.29,3.17.06,5.05,1.41,6.07a7.09,7.09,0,0,0,4.35,1.13c.39,0,.8,0,1.24,0a21.59,21.59,0,0,0,7-1.58,23.52,23.52,0,0,0,5.93-3.13,14.58,14.58,0,0,0,5.15-6.58,6.72,6.72,0,0,0,.82,2.79,5.94,5.94,0,0,0,4.15,2.85,5.6,5.6,0,0,0,1.11.11,12.43,12.43,0,0,0,4.63-1.13,23.42,23.42,0,0,0,6.33-3.27c5-3.69,7.46-7.86,7.27-12.41a19.89,19.89,0,0,0-.93-5.07,29.93,29.93,0,0,1,9.41-1.42,40.23,40.23,0,0,1,4.64.28c7.87.92,11.74,4,13.59,6.4a9.22,9.22,0,0,1,2.14,6.45,7.89,7.89,0,0,1-3.86,5.35c-1.13.7-2.55,1.57-2.21,3.43a2.63,2.63,0,0,0,2.72,2.26,6.59,6.59,0,0,0,1.1-.12,13.62,13.62,0,0,0,9.87-12.38,18.77,18.77,0,0,0-5.5-13.52c-4.87-5.07-12.14-7.86-20.47-7.86h-.2a37.76,37.76,0,0,0-14.79,3c-1.16-2.26-2.26-4.4-2.44-5.78-.05-.42-.11-.81-.16-1.18a16,16,0,0,1-.14-5.14,34.29,34.29,0,0,1,1.57-5.7,5.06,5.06,0,0,0,.5-2.09c0-.61-.56-3.63-5.85-3.67H264c-2.77,0-7.57.37-8.53,2.88a36.69,36.69,0,0,0-1.54,5.5c-.4,2.09-4.44,9.75-8.44,16.55a8.52,8.52,0,0,1-.61-2c-.05-.42-.11-.81-.16-1.18a16,16,0,0,1-.14-5.14,34.3,34.3,0,0,1,1.57-5.7,5.06,5.06,0,0,0,.5-2.09c0-.61-.56-3.63-5.85-3.66h-.2c-2.77,0-7.57.37-8.53,2.88a19.22,19.22,0,0,0-.58,2.06c-.24,1-.52,2.09-.89,3.17-.62,1.82-8.32,19-11.33,25.66l-.06.13c.77-3.15,1.64-6.36,2.25-8.61a22.89,22.89,0,0,0,.87-3.54c.26-2.22-.94-4-3.29-4.83a6.28,6.28,0,0,0-2.15-.41h0c.09-2.37-.23-5.33-1.9-7.45a7,7,0,0,0-5.79-2.59c-5.63,0-12.81,5.47-16.7,10.89l-11.24,6.15L177,143.71a98,98,0,0,0-10.08-8.49c-8.23-6.33-16-12.31-15.54-20.87.6-11.06,11.81-22.1,33.32-32.82,14.18-7.07,25.25-8.55,32-8.55,10.28,0,15.41,3.27,16.69,6.07,1.48,3.25.82,7.79-1.82,12.44-4.69,8.27-16.8,18.66-35.49,20.76a31,31,0,0,1-3.44.2c-6.85,0-11-2.59-12.26-4-1.1-1.21-2-2.16-3.27-2.16a2.81,2.81,0,0,0-1.38.39c-2.39,1.32-1.28,4.21-.91,5.16,1.15,3,5.13,7.05,11.21,9a35.13,35.13,0,0,0,10.44,1.36,64.79,64.79,0,0,0,23.2-4.58,47.41,47.41,0,0,0,21.58-17.25c5.53-8.15,7.5-16.87,5.54-24.54-2.74-10.74-15-17.41-31.93-17.41Zm35.22,88.79.31-.45a136.57,136.57,0,0,0,7.1-11.75q.22.83.5,1.76a38.25,38.25,0,0,0,2.51,5.89c-4.79,4.23-7.59,8.8-8.64,11.81l-.06.17v-.13a22.1,22.1,0,0,0-1.72-7.3Zm-51.54,14a26.46,26.46,0,0,1,1-13.33,36,36,0,0,1,5.52-10.16,10,10,0,0,1,3-2.39,94.4,94.4,0,0,1-4.29,13.52c-.32.77-.68,1.71-1.1,2.81a78,78,0,0,1-4.17,9.56Zm63.11-6.38.41-.92a15.88,15.88,0,0,1,1.66-2.73,6.69,6.69,0,0,1-2.08,3.65ZM157,178.79a3.43,3.43,0,0,1-1.64-.33,2,2,0,0,1-.69-1.53c-.31-2.7,1.39-7.33,5.24-11a77,77,0,0,1,11.45-8.53l1.77-1.06a19.62,19.62,0,0,1-5.28,16.69c-3.61,3.93-8.15,5.73-10.85,5.73Z"/></g></svg>