<svg xmlns="http://www.w3.org/2000/svg" viewBox="0 0 445 251"><defs><style>.cls-1{fill:#fff;}.cls-2{fill:#f7403c;}.cls-3,.cls-4{fill:none;stroke-miterlimit:10;}.cls-3{stroke:#ee423f;stroke-width:5px;}.cls-4{stroke:#f7403c;stroke-width:4px;}</style></defs><title>steves</title><g id="Layer_6" data-name="Layer 6"><rect class="cls-1" width="445" height="251"/></g><g id="Layer_3" data-name="Layer 3"><g id="Audiophile_Image" data-name="Audiophile Image"><path class="cls-2" d="M74.06,219.24a14.8,14.8,0,0,0,7.49,2.11c4.27,0,6.77-2.26,6.77-5.52,0-3-1.73-4.75-6.1-6.43-5.28-1.87-8.54-4.61-8.54-9.17,0-5,4.18-8.79,10.46-8.79A14.7,14.7,0,0,1,91.29,193l-1.15,3.41A12.88,12.88,0,0,0,84,194.91c-4.42,0-6.1,2.64-6.1,4.85,0,3,2,4.51,6.43,6.24,5.47,2.11,8.26,4.75,8.26,9.5,0,5-3.7,9.31-11.33,9.31A16.72,16.72,0,0,1,73,222.75Z"/><path class="cls-2" d="M103.1,194.43v6.67h6v3.22h-6v12.53c0,2.88.82,4.51,3.17,4.51a9.37,9.37,0,0,0,2.45-.29l.19,3.17a10.35,10.35,0,0,1-3.74.58,5.85,5.85,0,0,1-4.56-1.78c-1.2-1.25-1.63-3.31-1.63-6V204.32h-3.6V201.1H99v-5.57Z"/><path class="cls-2" d="M116,213.48c.1,5.71,3.74,8.06,8,8.06a15.28,15.28,0,0,0,6.43-1.2l.72,3a18.82,18.82,0,0,1-7.73,1.44c-7.15,0-11.42-4.71-11.42-11.71s4.13-12.53,10.9-12.53c7.58,0,9.6,6.67,9.6,10.94a15.88,15.88,0,0,1-.14,2Zm12.39-3c0-2.69-1.1-6.86-5.86-6.86-4.27,0-6.14,3.94-6.48,6.86Z"/><path class="cls-2" d="M139.29,201.1l4.56,13.06a59.76,59.76,0,0,1,1.87,6h.14c.53-1.92,1.2-3.84,2-6l4.51-13.06h4.42l-9.12,23.23h-4l-8.83-23.23Z"/><path class="cls-2" d="M162.62,213.48c.1,5.71,3.74,8.06,8,8.06a15.28,15.28,0,0,0,6.43-1.2l.72,3a18.82,18.82,0,0,1-7.73,1.44c-7.15,0-11.42-4.71-11.42-11.71s4.13-12.53,10.9-12.53c7.58,0,9.6,6.67,9.6,10.94a15.88,15.88,0,0,1-.14,2Zm12.39-3c0-2.69-1.1-6.86-5.86-6.86-4.27,0-6.14,3.94-6.48,6.86Z"/><path class="cls-2" d="M188.45,191.45a55.39,55.39,0,0,1-4.51,11.38l-2.69.34a67.91,67.91,0,0,0,2.83-11.28Z"/><path class="cls-2" d="M189,220a11.07,11.07,0,0,0,5.57,1.68c3.07,0,4.51-1.54,4.51-3.46s-1.2-3.12-4.32-4.27c-4.18-1.49-6.14-3.79-6.14-6.58,0-3.74,3-6.82,8-6.82a11.6,11.6,0,0,1,5.71,1.44l-1.06,3.07a9,9,0,0,0-4.75-1.34c-2.5,0-3.89,1.44-3.89,3.17,0,1.92,1.39,2.78,4.42,3.94,4,1.54,6.1,3.55,6.1,7,0,4.08-3.17,7-8.69,7a13.24,13.24,0,0,1-6.53-1.58Z"/><path class="cls-2" d="M218.92,192.41a59.85,59.85,0,0,1,8.88-.67c6,0,10.27,1.39,13.11,4s4.56,6.38,4.56,11.62-1.63,9.6-4.66,12.58-8,4.66-14.3,4.66a67.6,67.6,0,0,1-7.58-.38ZM223.1,221a26.32,26.32,0,0,0,4.22.24c8.93,0,13.78-5,13.78-13.73,0-7.63-4.27-12.48-13.1-12.48a23.72,23.72,0,0,0-4.9.43Z"/><path class="cls-2" d="M253.29,213.48c.1,5.71,3.74,8.06,8,8.06a15.28,15.28,0,0,0,6.43-1.2l.72,3a18.83,18.83,0,0,1-7.73,1.44c-7.15,0-11.42-4.71-11.42-11.71s4.13-12.53,10.9-12.53c7.58,0,9.6,6.67,9.6,10.94a15.77,15.77,0,0,1-.14,2Zm12.39-3c0-2.69-1.1-6.86-5.86-6.86-4.27,0-6.14,3.94-6.48,6.86Z"/><path class="cls-2" d="M274.41,220a11.07,11.07,0,0,0,5.57,1.68c3.07,0,4.51-1.54,4.51-3.46s-1.2-3.12-4.32-4.27c-4.18-1.49-6.14-3.79-6.14-6.58,0-3.74,3-6.82,8-6.82a11.6,11.6,0,0,1,5.71,1.44l-1.06,3.07a9,9,0,0,0-4.75-1.34c-2.5,0-3.89,1.44-3.89,3.17,0,1.92,1.39,2.78,4.42,3.94,4,1.54,6.1,3.55,6.1,7,0,4.08-3.17,7-8.69,7a13.24,13.24,0,0,1-6.53-1.58Z"/><path class="cls-2" d="M298.7,194.57a2.62,2.62,0,0,1-5.23,0,2.57,2.57,0,0,1,2.64-2.64A2.51,2.51,0,0,1,298.7,194.57ZM294,224.33V201.1h4.22v23.23Z"/><path class="cls-2" d="M325.24,201.1c-.1,1.68-.19,3.55-.19,6.38V221c0,5.33-1.06,8.59-3.31,10.61s-5.52,2.78-8.45,2.78a15,15,0,0,1-7.73-1.92l1.06-3.22a13.1,13.1,0,0,0,6.82,1.82c4.32,0,7.49-2.26,7.49-8.11v-2.59h-.1a8.29,8.29,0,0,1-7.39,3.89c-5.76,0-9.89-4.9-9.89-11.33,0-7.87,5.14-12.34,10.46-12.34a7.73,7.73,0,0,1,7.25,4h.1l.19-3.5Zm-4.37,9.17a6.18,6.18,0,0,0-6.14-6.38c-4,0-6.91,3.41-6.91,8.79,0,4.56,2.3,8.35,6.86,8.35a6.17,6.17,0,0,0,5.86-4.32,7.34,7.34,0,0,0,.34-2.26Z"/><path class="cls-2" d="M331.77,207.39c0-2.4,0-4.37-.19-6.29h3.74l.24,3.84h.1a8.54,8.54,0,0,1,7.68-4.37c3.22,0,8.21,1.92,8.21,9.89v13.87h-4.22V210.94c0-3.74-1.39-6.86-5.38-6.86a6,6,0,0,0-5.67,4.32,6.09,6.09,0,0,0-.29,2v14h-4.22Z"/><path class="cls-2" d="M357.83,220a11.07,11.07,0,0,0,5.57,1.68c3.07,0,4.51-1.54,4.51-3.46s-1.2-3.12-4.32-4.27c-4.18-1.49-6.14-3.79-6.14-6.58,0-3.74,3-6.82,8-6.82a11.6,11.6,0,0,1,5.71,1.44l-1.06,3.07a9,9,0,0,0-4.75-1.34c-2.5,0-3.89,1.44-3.89,3.17,0,1.92,1.39,2.78,4.42,3.94,4,1.54,6.1,3.55,6.1,7,0,4.08-3.17,7-8.69,7a13.24,13.24,0,0,1-6.53-1.58Z"/></g><path class="cls-3" d="M300,75.71a80.71,80.71,0,0,0-157.29,15.7"/><path class="cls-3" d="M145.57,122.76a80.7,80.7,0,0,0,152.9,5.5"/></g><g id="Layer_5" data-name="Layer 5"><rect class="cls-4" x="119.84" y="110.89" width="24.87" height="8.94"/><path class="cls-4" d="M291.48,98.79s-16.23-8.08-22.94-11.47C249,74.8,226.8,75.72,226.8,75.72v6.95l4.85,0v4h-6.15c-6.24,10-14.39,9.5-14.39,9.5-12.72,0-15.16-3.77-18.52-4.75-7.55.14-14.25.28-31.72,2.52a160.07,160.07,0,0,0-42.13,12.72c-2,.84-2.52,1.26-1.54,2.24,1.3.7,2.61,1.35,3.94,2h23.59c0,1.82,0,3.9,0,6.75,3.35.51,5.45.66,5.45.66s4.61,5.59,10.29,5.59A14.41,14.41,0,0,0,172.81,119s11.32-.7,16.91,2.1H294a15.09,15.09,0,0,1-6.34-12.3A14.08,14.08,0,0,1,291.48,98.79Z"/><circle class="cls-4" cx="161.77" cy="108.94" r="14.95"/><circle class="cls-4" cx="302.77" cy="108.8" r="15.09"/><path class="cls-4" d="M305,93.87v-16h24.18v25.74H316.94a15.63,15.63,0,0,0-2.85-4.89C310.81,94.82,305,93.87,305,93.87Z"/></g></svg>