<svg xmlns="http://www.w3.org/2000/svg" viewBox="0 0 298.99 217.73"><defs><style>.cls-1{fill:#f7403c;}.cls-2{fill:#ef433f;}.cls-3{fill:#fff;stroke:#fff;stroke-width:9px;}.cls-3,.cls-4{stroke-miterlimit:10;}.cls-4{fill:none;stroke:#f7403c;stroke-width:4px;}</style></defs><title>steves</title><g id="Layer_3" data-name="Layer 3"><g id="Audiophile_Image" data-name="Audiophile Image"><path class="cls-1" d="M1.06,202.61a14.8,14.8,0,0,0,7.49,2.11c4.27,0,6.77-2.26,6.77-5.52,0-3-1.73-4.75-6.1-6.43C3.94,190.9.67,188.16.67,183.6c0-5,4.18-8.79,10.46-8.79a14.7,14.7,0,0,1,7.15,1.58l-1.15,3.41A12.88,12.88,0,0,0,11,178.27c-4.42,0-6.1,2.64-6.1,4.85,0,3,2,4.51,6.43,6.24,5.47,2.11,8.26,4.75,8.26,9.5,0,5-3.7,9.31-11.33,9.31A16.72,16.72,0,0,1,0,206.12Z"/><path class="cls-1" d="M30.1,177.79v6.67h6v3.22h-6v12.53c0,2.88.82,4.51,3.17,4.51a9.37,9.37,0,0,0,2.45-.29l.19,3.17a10.35,10.35,0,0,1-3.74.58,5.85,5.85,0,0,1-4.56-1.78c-1.2-1.25-1.63-3.31-1.63-6V187.68h-3.6v-3.22H26V178.9Z"/><path class="cls-1" d="M43,196.85c.1,5.71,3.74,8.06,8,8.06a15.28,15.28,0,0,0,6.43-1.2l.72,3a18.82,18.82,0,0,1-7.73,1.44c-7.15,0-11.42-4.71-11.42-11.71s4.13-12.53,10.9-12.53c7.58,0,9.6,6.67,9.6,10.94a15.88,15.88,0,0,1-.14,2Zm12.39-3c0-2.69-1.1-6.86-5.86-6.86-4.27,0-6.14,3.94-6.48,6.86Z"/><path class="cls-1" d="M66.29,184.47l4.56,13.06a59.76,59.76,0,0,1,1.87,6h.14c.53-1.92,1.2-3.84,2-6l4.51-13.06h4.42L74.64,207.7h-4l-8.83-23.23Z"/><path class="cls-1" d="M89.62,196.85c.1,5.71,3.74,8.06,8,8.06a15.28,15.28,0,0,0,6.43-1.2l.72,3A18.82,18.82,0,0,1,97,208.18c-7.15,0-11.42-4.71-11.42-11.71s4.13-12.53,10.9-12.53c7.58,0,9.6,6.67,9.6,10.94a15.88,15.88,0,0,1-.14,2Zm12.39-3c0-2.69-1.1-6.86-5.86-6.86-4.27,0-6.14,3.94-6.48,6.86Z"/><path class="cls-1" d="M115.44,174.82a55.39,55.39,0,0,1-4.51,11.38l-2.69.34a67.91,67.91,0,0,0,2.83-11.28Z"/><path class="cls-1" d="M116,203.38a11.07,11.07,0,0,0,5.57,1.68c3.07,0,4.51-1.54,4.51-3.46s-1.2-3.12-4.32-4.27c-4.18-1.49-6.14-3.79-6.14-6.58,0-3.74,3-6.82,8-6.82a11.6,11.6,0,0,1,5.71,1.44l-1.06,3.07a9,9,0,0,0-4.75-1.34c-2.5,0-3.89,1.44-3.89,3.17,0,1.92,1.39,2.78,4.42,3.94,4,1.54,6.1,3.55,6.1,7,0,4.08-3.17,7-8.69,7A13.24,13.24,0,0,1,115,206.6Z"/><path class="cls-1" d="M145.92,175.78a59.85,59.85,0,0,1,8.88-.67c6,0,10.27,1.39,13.11,4s4.56,6.38,4.56,11.62-1.63,9.6-4.66,12.58-8,4.66-14.3,4.66a67.6,67.6,0,0,1-7.58-.38Zm4.18,28.61a26.32,26.32,0,0,0,4.22.24c8.93,0,13.78-5,13.78-13.73,0-7.63-4.27-12.48-13.1-12.48a23.72,23.72,0,0,0-4.9.43Z"/><path class="cls-1" d="M180.29,196.85c.1,5.71,3.74,8.06,8,8.06a15.28,15.28,0,0,0,6.43-1.2l.72,3a18.83,18.83,0,0,1-7.73,1.44c-7.15,0-11.42-4.71-11.42-11.71s4.13-12.53,10.9-12.53c7.58,0,9.6,6.67,9.6,10.94a15.77,15.77,0,0,1-.14,2Zm12.39-3c0-2.69-1.1-6.86-5.86-6.86-4.27,0-6.14,3.94-6.48,6.86Z"/><path class="cls-1" d="M201.41,203.38a11.07,11.07,0,0,0,5.57,1.68c3.07,0,4.51-1.54,4.51-3.46s-1.2-3.12-4.32-4.27c-4.18-1.49-6.14-3.79-6.14-6.58,0-3.74,3-6.82,8-6.82a11.6,11.6,0,0,1,5.71,1.44l-1.06,3.07a9,9,0,0,0-4.75-1.34c-2.5,0-3.89,1.44-3.89,3.17,0,1.92,1.39,2.78,4.42,3.94,4,1.54,6.1,3.55,6.1,7,0,4.08-3.17,7-8.69,7a13.24,13.24,0,0,1-6.53-1.58Z"/><path class="cls-1" d="M225.69,177.94a2.62,2.62,0,0,1-5.23,0,2.57,2.57,0,0,1,2.64-2.64A2.51,2.51,0,0,1,225.69,177.94ZM221,207.7V184.47h4.22V207.7Z"/><path class="cls-1" d="M252.24,184.47c-.1,1.68-.19,3.55-.19,6.38v13.49c0,5.33-1.06,8.59-3.31,10.61s-5.52,2.78-8.45,2.78a15,15,0,0,1-7.73-1.92l1.06-3.22a13.1,13.1,0,0,0,6.82,1.82c4.32,0,7.49-2.26,7.49-8.11v-2.59h-.1a8.29,8.29,0,0,1-7.39,3.89c-5.76,0-9.89-4.9-9.89-11.33,0-7.87,5.14-12.34,10.46-12.34a7.73,7.73,0,0,1,7.25,4h.1l.19-3.5Zm-4.37,9.17a6.18,6.18,0,0,0-6.14-6.38c-4,0-6.91,3.41-6.91,8.79,0,4.56,2.3,8.35,6.86,8.35a6.17,6.17,0,0,0,5.86-4.32,7.34,7.34,0,0,0,.34-2.26Z"/><path class="cls-1" d="M258.77,190.75c0-2.4,0-4.37-.19-6.29h3.74l.24,3.84h.1a8.54,8.54,0,0,1,7.68-4.37c3.22,0,8.21,1.92,8.21,9.89V207.7h-4.22V194.31c0-3.74-1.39-6.86-5.38-6.86a6,6,0,0,0-5.67,4.32,6.09,6.09,0,0,0-.29,2v14h-4.22Z"/><path class="cls-1" d="M284.83,203.38a11.07,11.07,0,0,0,5.57,1.68c3.07,0,4.51-1.54,4.51-3.46s-1.2-3.12-4.32-4.27c-4.18-1.49-6.14-3.79-6.14-6.58,0-3.74,3-6.82,8-6.82a11.6,11.6,0,0,1,5.71,1.44l-1.06,3.07a9,9,0,0,0-4.75-1.34c-2.5,0-3.89,1.44-3.89,3.17,0,1.92,1.39,2.78,4.42,3.94,4,1.54,6.1,3.55,6.1,7,0,4.08-3.17,7-8.69,7a13.24,13.24,0,0,1-6.53-1.58Z"/></g><g id="Circle"><path class="cls-2" d="M149.49,5.7A78.5,78.5,0,1,1,71,84.2a78.59,78.59,0,0,1,78.5-78.5m0-5A83.5,83.5,0,1,0,233,84.2,83.5,83.5,0,0,0,149.49.7Z"/></g></g><g id="Layer_5" data-name="Layer 5"><rect class="cls-3" x="46.84" y="94.26" width="24.87" height="8.94"/><path class="cls-3" d="M218.47,82.16s-16.23-8.08-22.94-11.47C176,58.17,153.79,59.09,153.79,59.09V66l4.85,0v4h-6.15c-6.24,10-14.39,9.5-14.39,9.5-12.72,0-15.16-3.77-18.52-4.75-7.55.14-14.25.28-31.72,2.52A160.07,160.07,0,0,0,45.72,90.07c-2,.84-2.52,1.26-1.54,2.24,1.3.7,2.61,1.35,3.94,2H71.71c0,1.82,0,3.9,0,6.75,3.35.51,5.45.66,5.45.66s4.61,5.59,10.29,5.59a14.41,14.41,0,0,0,12.34-4.89s11.32-.7,16.91,2.1H221a15.09,15.09,0,0,1-6.34-12.3A14.08,14.08,0,0,1,218.47,82.16Z"/><circle class="cls-3" cx="88.76" cy="92.3" r="14.95"/><circle class="cls-3" cx="229.77" cy="92.16" r="15.09"/><path class="cls-3" d="M232,77.24v-16h24.18V86.95H243.93a15.63,15.63,0,0,0-2.85-4.89C237.8,78.19,232,77.24,232,77.24Z"/></g><g id="Layer_6" data-name="Layer 6"><rect class="cls-4" x="46.84" y="94.26" width="24.87" height="8.94"/><path class="cls-4" d="M218.47,82.16s-16.23-8.08-22.94-11.47C176,58.17,153.79,59.09,153.79,59.09V66l4.85,0v4h-6.15c-6.24,10-14.39,9.5-14.39,9.5-12.72,0-15.16-3.77-18.52-4.75-7.55.14-14.25.28-31.72,2.52A160.07,160.07,0,0,0,45.72,90.07c-2,.84-2.52,1.26-1.54,2.24,1.3.7,2.61,1.35,3.94,2H71.71c0,1.82,0,3.9,0,6.75,3.35.51,5.45.66,5.45.66s4.61,5.59,10.29,5.59a14.41,14.41,0,0,0,12.34-4.89s11.32-.7,16.91,2.1H221a15.09,15.09,0,0,1-6.34-12.3A14.08,14.08,0,0,1,218.47,82.16Z"/><circle class="cls-4" cx="88.76" cy="92.3" r="14.95"/><circle class="cls-4" cx="229.77" cy="92.16" r="15.09"/><path class="cls-4" d="M232,77.24v-16h24.18V86.95H243.93a15.63,15.63,0,0,0-2.85-4.89C237.8,78.19,232,77.24,232,77.24Z"/></g></svg>