<?xml version="1.0" encoding="utf-8"?>
<!-- Generator: Adobe Illustrator 19.0.0, SVG Export Plug-In . SVG Version: 6.00 Build 0)  -->
<svg version="1.1" id="Layer_1" xmlns="http://www.w3.org/2000/svg" xmlns:xlink="http://www.w3.org/1999/xlink" x="0px" y="0px"
	 viewBox="0 0 900 900" style="enable-background:new 0 0 900 900;" xml:space="preserve">
<style type="text/css">
	.st0{fill:#37465D;}
	.st1{fill:none;stroke:#FCEE21;stroke-width:4;stroke-miterlimit:10;}
	.st2{opacity:0.25;}
	.st3{fill:#FFFFFF;}
	.st4{opacity:0.5;fill:#38465D;}
</style>
<rect x="1" class="st0" width="900" height="900"/>
<path class="st1" d="M400.9,145.4"/>
<path class="st2" d="M565.1,617c8.2,0,17.1-1.2,25.8-3.3V466.3h111.6V337.8h-68.6V409H522.4v162.4C523,612.3,546.1,617,565.1,617z
	 M591.4,186.5h-68.6v94h68.6V186.5z M691.3,658.9c-12.7,7.1-28.9,12.4-44.3,14.5l11.4,33.8c-20.5,27-71.4,45.5-118.1,46.3
	c-1.6,0-3.1,0-4.7,0c0,0,0,0,0,0c-32.5,0-59.5-5.7-81.9-15.3c26.2,40,72.7,72.6,150.5,72.6c0,0,0,0,0,0c1.6,0,3.1,0,4.7,0
	c46.6-0.8,97.6-19.4,118.1-46.3L691.3,658.9z"/>
<path class="st1" d="M292,295.5"/>
<path class="st3" d="M514.5,766.6c65.1,0,129.7-23.2,151-51.3l4.3-5.6l-40.4-119.7c-0.4-1.1-1.4-1.9-2.6-1.9h-7.6h-3.5l-79.1,0
	c-1.2,0-2.3-0.8-2.6-2c-1.1-4-1.7-8.9-1.8-14.9V425c0-1.5,1.2-2.7,2.7-2.7h106.1c1.5,0,2.7-1.2,2.7-2.7V269.8c0-1.5-1.2-2.7-2.7-2.7
	H535.4c-1.5,0-2.7-1.2-2.7-2.7V118.5c0-1.5-1.2-2.7-2.7-2.7h-82.6h-28.9h-73.8c-13.3,0-28.5,9.8-30.8,28
	c-9.3,75.3-43.8,120.5-108.7,142.2l-7.2,2.4c-1.1,0.4-1.9,1.4-1.9,2.6v128.6c0,1.5,1.2,2.7,2.7,2.7h50.4h0h15.9c0,0,0,120,0,158.3
	C265.1,707,352.7,766.6,514.5,766.6z M638.6,705.5c-20.3,19.5-62,34.1-102,34.7c-1.5,0-3,0-4.5,0h0
	c-131.5,0-166.6-100.4-166.6-159.7V398.3c0-1.5-1.2-2.7-2.7-2.7h-63.6c-1.5,0-2.7-1.2-2.7-2.7v-83c0-1.1,0.7-2.1,1.7-2.5
	c68-26.5,105.9-79,115.9-160.3c0.6-4.5,4.3-4.6,4.3-4.6h84.9c1.5,0,2.7,1.2,2.7,2.7v145.9c0,1.5,1.2,2.7,2.7,2.7h105.7
	c1.5,0,2.7,1.2,2.7,2.7v96.4c0,1.5-1.2,2.7-2.7,2.7H508.3c-1.5,0-2.7,1.2-2.7,2.7l0,173.2c0.6,39,19.5,58.8,56.1,58.8
	c14.7,0,31.6-3.4,47.1-9.3c1.4-0.6,3,0.2,3.5,1.6l27,80C639.6,703.7,639.4,704.8,638.6,705.5z"/>
<path class="st4" d="M265.1,464.9h73.8v-40.2c0-1.3-1.1-2.4-2.4-2.4h-71.4V464.9z"/>
</svg>
