<svg version="1.1" xmlns="http://www.w3.org/2000/svg" xmlns:xlink="http://www.w3.org/1999/xlink" x="0px" y="0px"
	 viewBox="0 0 100 100" style="enable-background:new 0 0 100 100;" xml:space="preserve">
<style type="text/css">
	.st0{fill:#55ACEE;}
	.st1{fill:#FFFFFF;}
</style>
<g id="BG">
	<rect class="st0" width="100" height="100"/>
</g>
<g id="Bird">
	<path class="st1" d="M85.5,26.5c-2.5,1.1-5.2,1.9-8,2.2c2.9-1.7,5.1-4.4,6.1-7.7c-2.7,1.6-5.7,2.7-8.9,3.4
		c-2.5-2.7-6.2-4.4-10.2-4.4c-7.7,0-14,6.2-14,13.9c0,1.1,0.1,2.1,0.4,3.2C39.4,36.5,29.2,31,22.3,22.6c-1.2,2.1-1.9,4.4-1.9,7
		c0,4.8,2.5,9.1,6.2,11.6c-2.3-0.1-4.4-0.7-6.3-1.7c0,0.1,0,0.1,0,0.2c0,6.7,4.8,12.3,11.2,13.6c-1.2,0.3-2.4,0.5-3.7,0.5
		c-0.9,0-1.8-0.1-2.6-0.2c1.8,5.5,6.9,9.5,13,9.6C33.4,66.8,27.4,69,20.9,69c-1.1,0-2.2-0.1-3.3-0.2c6.2,3.9,13.5,6.2,21.4,6.2
		c25.7,0,39.7-21.2,39.7-39.5c0-0.6,0-1.2,0-1.8C81.3,31.8,83.7,29.3,85.5,26.5z"/>
</g>
</svg>
